<svg width="362" height="369" viewBox="0 0 362 369" fill="none" xmlns="http://www.w3.org/2000/svg">
<path d="M233.088 364.327C221.458 370.874 210.863 362.213 202.852 351.069C196.065 341.636 191.13 330.421 189.004 325.155C188.258 323.304 188.42 321.227 189.413 319.502C198.001 304.578 198.783 293.905 193.834 277.129V277.121C193.735 276.867 193.644 276.621 193.545 276.381C193.461 276.163 193.369 275.952 193.278 275.741C186.963 275.107 180.592 275.128 174.157 275.825C174.108 275.867 174.073 275.896 174.023 275.938C173.96 276.135 173.904 276.339 173.847 276.536C168.941 293.236 169.447 304.549 177.987 319.509C178.972 321.234 179.127 323.304 178.388 325.148C173.749 336.609 155.776 376.421 134.297 364.327C125.624 359.123 123.09 352.315 124.3 345.656C125.884 336.834 134.051 328.281 143.231 324.092C113.994 294.863 121.231 244.765 121.71 238.612L170.095 238.816L245.753 239.14C246.183 245.349 251.329 291.596 224.288 323.846C239.917 331.653 252.793 352.498 233.088 364.327Z" fill="white"/>
<path d="M233.089 364.327H233.096H233.089ZM194.181 277.059C199.261 294.298 198.133 305.055 189.719 319.677C188.768 321.329 188.627 323.277 189.331 325.025C191.172 329.581 196.201 341.221 203.138 350.864C213.295 364.996 223.312 369.424 232.913 364.022C239.578 360.02 242.973 354.592 242.731 348.325C242.345 338.368 233.083 328.632 224.131 324.162C224.035 324.112 223.966 324.024 223.944 323.918C223.923 323.812 223.95 323.703 224.02 323.62C240.592 303.854 248.216 274.257 245.489 240.28C245.465 239.981 245.444 239.718 245.427 239.491L122.034 238.966C122.002 239.322 121.955 239.774 121.9 240.313C117.189 286.809 131.035 311.401 143.481 323.843C143.562 323.925 143.599 324.042 143.578 324.155C143.558 324.269 143.482 324.364 143.378 324.412C133.819 328.774 126.116 337.536 124.647 345.718C123.719 350.823 124.673 358.142 134.478 364.024C138.774 366.443 143.226 366.877 147.704 365.308C162.891 359.993 174.78 333.125 178.062 325.018C178.76 323.275 178.622 321.33 177.682 319.684C169.455 305.272 168.362 293.955 173.51 276.438L173.54 276.335C173.587 276.168 173.635 275.997 173.689 275.831C173.709 275.769 173.745 275.714 173.794 275.672L173.93 275.558C173.984 275.512 174.049 275.483 174.12 275.476C180.513 274.784 186.972 274.754 193.313 275.392C193.44 275.405 193.551 275.485 193.602 275.602C193.695 275.817 193.788 276.033 193.874 276.255C193.938 276.413 194.002 276.577 194.068 276.748L194.162 276.994C194.171 277.014 194.176 277.036 194.181 277.059ZM224.872 366.971C217.547 366.971 210.078 361.724 202.567 351.275C195.584 341.57 190.528 329.868 188.678 325.288C187.894 323.338 188.05 321.165 189.108 319.328C197.416 304.892 198.523 294.269 193.496 277.228L193.494 277.215L193.41 277C193.347 276.835 193.285 276.675 193.22 276.517C193.161 276.362 193.099 276.216 193.037 276.072C186.853 275.465 180.557 275.496 174.322 276.162C174.286 276.283 174.251 276.407 174.217 276.528L174.186 276.634C169.1 293.941 170.176 305.114 178.293 319.335C179.34 321.168 179.495 323.335 178.715 325.28C175.405 333.459 163.402 360.561 147.937 365.973C143.258 367.611 138.61 367.159 134.126 364.633C123.964 358.539 122.987 350.916 123.955 345.592C125.463 337.195 132.939 328.566 142.629 323.984C130.169 311.324 116.505 286.574 121.201 240.243C121.274 239.528 121.33 238.97 121.36 238.584C121.374 238.401 121.53 238.294 121.712 238.261L245.755 238.789C245.939 238.789 246.092 238.932 246.106 239.117C246.124 239.401 246.155 239.773 246.19 240.223C248.917 274.192 241.337 303.826 224.842 323.732C233.853 328.384 243.045 338.216 243.435 348.297C243.687 354.839 240.172 360.485 233.269 364.628L233.262 364.633C230.491 366.193 227.692 366.971 224.872 366.971Z" fill="#102770"/>
<path d="M142.421 364.186C140.097 364.186 137.813 363.544 135.536 362.263C129.181 358.447 126.12 353.626 126.439 347.933C126.442 347.871 126.447 347.807 126.451 347.744C131.788 352.631 136.902 355.075 141.791 355.075C151.602 355.075 160.507 345.235 168.511 325.55C151.32 305.106 162.83 277.726 162.83 277.726L171.26 276.817C166.26 294.405 167.53 306.049 175.896 320.704C176.524 321.805 176.619 323.093 176.154 324.24C172.955 332.148 161.398 358.338 147.027 363.368C145.467 363.913 143.936 364.186 142.421 364.186Z" fill="#B7BED4"/>
<path d="M224.952 364.185C223.441 364.185 221.913 363.912 220.36 363.368C218.647 362.768 216.973 361.867 215.348 360.732C216.794 361.229 218.164 361.459 219.444 361.459C234.591 361.459 237.56 329.326 215.095 327.16C227.084 289.462 232.969 260.612 222.43 255.536C214.108 265.529 206.375 269.54 199.042 269.542C194.321 269.542 189.766 267.88 185.323 265.083C180.94 266.916 177.058 267.806 173.648 267.806C167.981 267.806 163.616 265.349 160.421 260.69C162.221 261.761 164.183 262.585 166.264 263.085C167.686 263.418 169.158 263.597 170.632 263.597C171.489 263.597 172.35 263.537 173.201 263.411C175.522 263.096 177.758 262.278 179.758 261.136C179.832 261.095 179.915 261.04 179.982 260.988C181.304 259.987 182.58 258.821 183.628 257.394C184.675 258.821 185.951 259.987 187.273 260.988C187.339 261.039 187.422 261.094 187.497 261.136C189.497 262.278 191.733 263.096 194.054 263.411C194.906 263.537 195.764 263.597 196.623 263.597C198.097 263.597 199.569 263.418 200.991 263.085C205.501 262.002 209.456 259.394 212.401 256.047C213.554 254.742 214.562 253.323 215.418 251.825L217.101 251.286C225.346 248.649 234.685 245.662 243.587 242.421C245.825 275.026 238.346 303.332 222.443 322.3C221.97 322.865 221.781 323.615 221.932 324.337C222.081 325.058 222.554 325.672 223.213 326.002C233.02 330.9 240.364 340.322 240.676 348.404C240.892 353.956 237.921 358.618 231.907 362.229C229.59 363.534 227.288 364.185 224.952 364.185Z" fill="#B7BED4"/>
<path d="M131.223 332.808C146.953 325.548 153.788 342.013 125.605 341.308L131.223 332.808Z" fill="#418BF9"/>
<path d="M127.325 341.682C126.764 341.682 126.188 341.675 125.595 341.66C125.402 341.656 125.247 341.494 125.253 341.299C125.257 341.108 125.413 340.956 125.605 340.956H125.613C137.68 341.253 143.234 338.333 144.321 335.735C144.752 334.703 144.52 333.682 143.666 332.86C141.84 331.097 137.212 330.43 131.371 333.127C131.193 333.208 130.986 333.132 130.903 332.956C130.821 332.778 130.899 332.57 131.075 332.488C137.252 329.637 142.095 330.365 144.156 332.353C145.217 333.377 145.514 334.707 144.97 336.007C143.8 338.803 138.543 341.682 127.325 341.682Z" fill="#102770"/>
<path d="M239.826 297.466C239.551 297.748 239.263 298.015 238.96 298.276C230.132 306.104 211.737 307.843 196.784 292.158L196.242 287.406C220.656 299.339 236.454 296.171 242.17 288.166C242.452 287.772 242.712 287.364 242.945 286.948" fill="#418BF9"/>
<path d="M222.194 304.429C214.14 304.429 204.901 301.182 196.529 292.402C196.476 292.345 196.443 292.275 196.434 292.197L195.893 287.445C195.877 287.319 195.934 287.193 196.039 287.119C196.145 287.044 196.282 287.033 196.397 287.091C221.625 299.42 236.668 295.267 241.883 287.962C242.161 287.574 242.415 287.175 242.638 286.777C242.732 286.606 242.948 286.547 243.117 286.642C243.287 286.736 243.348 286.95 243.252 287.12C243.017 287.54 242.749 287.962 242.456 288.372C237.12 295.843 221.942 300.181 196.665 288.002L197.121 292C212.448 308.001 230.669 305.159 238.727 298.012C239.043 297.739 239.318 297.482 239.576 297.22C239.711 297.082 239.933 297.08 240.073 297.214C240.212 297.351 240.215 297.573 240.078 297.713C239.808 297.988 239.518 298.26 239.19 298.542C235.335 301.962 229.214 304.429 222.194 304.429Z" fill="#102770"/>
<path d="M123.758 286.948C123.99 287.364 124.25 287.772 124.532 288.166C130.248 296.171 146.046 299.339 170.46 287.406L169.918 292.158C154.966 307.843 136.57 306.104 127.742 298.276C127.44 298.015 127.151 297.748 126.876 297.466" fill="#418BF9"/>
<path d="M144.508 304.427C137.487 304.429 131.366 301.96 127.508 298.539C127.184 298.26 126.894 297.988 126.624 297.712C126.487 297.573 126.49 297.351 126.63 297.214C126.769 297.08 126.991 297.082 127.127 297.22C127.383 297.482 127.659 297.739 127.971 298.008C136.032 305.158 154.251 308.001 169.582 292L170.038 288.002C144.759 300.181 129.581 295.843 124.244 288.372C123.952 287.959 123.684 287.538 123.449 287.12C123.355 286.95 123.415 286.736 123.586 286.641C123.753 286.547 123.968 286.606 124.064 286.777C124.285 287.174 124.539 287.572 124.818 287.962C130.034 295.267 145.077 299.42 170.305 287.091C170.421 287.033 170.557 287.046 170.663 287.119C170.767 287.193 170.823 287.319 170.809 287.445L170.267 292.197C170.259 292.275 170.226 292.345 170.173 292.402C161.802 301.18 152.562 304.427 144.508 304.427Z" fill="#102770"/>
<path d="M235.275 332.808C219.545 325.548 212.71 342.013 240.893 341.308L235.275 332.808Z" fill="#418BF9"/>
<path d="M239.171 341.682C227.954 341.682 222.698 338.803 221.528 336.007C220.984 334.707 221.282 333.377 222.342 332.353C224.403 330.366 229.245 329.637 235.423 332.488C235.599 332.57 235.675 332.778 235.595 332.956C235.513 333.132 235.305 333.208 235.128 333.127C229.285 330.431 224.656 331.097 222.83 332.86C221.977 333.682 221.745 334.703 222.177 335.735C223.264 338.333 228.826 341.25 240.885 340.956H240.893C241.083 340.956 241.241 341.108 241.245 341.299C241.25 341.494 241.096 341.656 240.902 341.66C240.31 341.675 239.733 341.682 239.171 341.682Z" fill="#102770"/>
<path d="M123.896 241.03C119.418 286.389 132.85 310.307 144.934 322.392C145.493 322.949 145.74 323.745 145.601 324.52C145.462 325.298 144.949 325.957 144.232 326.283C134.374 330.786 126.89 339.891 126.44 347.932C126.12 353.626 129.181 358.447 135.537 362.263C139.297 364.379 143.074 364.751 147.027 363.368C161.399 358.337 172.955 332.147 176.154 324.24C176.619 323.093 176.525 321.804 175.897 320.703C167.284 305.618 166.191 293.722 171.718 275.249C171.851 274.8 172.115 274.4 172.472 274.098L172.606 273.986C172.972 273.678 173.423 273.485 173.899 273.433C180.432 272.726 187.034 272.697 193.519 273.347C194.388 273.435 195.141 273.985 195.489 274.786C195.591 275.026 195.696 275.266 195.79 275.513C195.843 275.642 195.912 275.818 195.981 275.998L196.076 276.245C196.114 276.341 196.145 276.436 196.169 276.535C201.416 294.367 200.235 305.522 191.497 320.701C190.865 321.802 190.768 323.094 191.235 324.247C194.434 332.153 205.991 358.339 220.361 363.368C224.314 364.752 228.089 364.379 231.908 362.229C237.921 358.618 240.892 353.956 240.676 348.404C240.364 340.322 233.02 330.9 223.213 326.002C222.554 325.672 222.081 325.058 221.932 324.337C221.781 323.615 221.97 322.865 222.443 322.3C238.49 303.161 245.959 274.513 243.525 241.538L123.896 241.03ZM142.436 369C139.281 369 136.163 368.14 133.116 366.425C123.082 360.403 121.337 352.901 121.631 347.663C122.137 338.648 129.233 329.04 139.262 323.411C127.054 309.894 114.617 284.827 119.155 240.034C119.225 239.34 119.282 238.8 119.31 238.425C119.407 237.171 120.454 236.205 121.71 236.205H121.72L245.765 236.733C247.025 236.738 248.068 237.715 248.156 238.974C248.175 239.253 248.205 239.616 248.24 240.057C250.924 273.492 243.735 302.845 227.967 323.125C236.554 328.283 245.083 337.739 245.489 348.218C245.686 353.335 243.911 360.639 234.328 366.391C229.246 369.253 224.028 369.753 218.77 367.913C202.935 362.371 191.118 336.794 186.772 326.054C185.745 323.519 185.947 320.692 187.324 318.299C195.375 304.313 196.418 294.497 191.583 278.005C186.392 277.571 181.133 277.594 175.909 278.072C171.235 294.456 172.347 304.772 180.08 318.317C181.443 320.705 181.64 323.524 180.619 326.047C176.272 336.788 164.452 362.37 148.617 367.913C146.547 368.638 144.483 369 142.436 369Z" fill="#102770"/>
<path d="M226.43 324.949C226.236 325.236 226.009 325.51 225.769 325.75C225.579 325.905 225.412 326.013 225.229 326.137C225.038 326.272 224.9 326.326 224.748 326.399L224.301 326.601C223.747 326.807 223.223 326.955 222.718 327.073C221.707 327.307 220.734 327.439 219.762 327.548C218.792 327.65 217.829 327.717 216.863 327.736C215.897 327.752 214.934 327.749 213.951 327.601C213.757 327.572 213.623 327.39 213.653 327.196C213.675 327.046 213.787 326.932 213.926 326.901L213.951 326.897C214.815 326.704 215.676 326.38 216.518 326.04C217.362 325.695 218.189 325.309 218.991 324.896C219.787 324.484 220.575 324.047 221.269 323.574L221.761 323.215C221.916 323.096 222.043 322.973 222.181 322.858L222.32 322.693C222.363 322.641 222.427 322.582 222.405 322.559C222.396 322.532 222.413 322.499 222.392 322.497C222.289 322.552 222.202 322.644 222.147 322.746C222.756 321.564 224.207 321.098 225.39 321.706C226.573 322.314 227.039 323.766 226.43 324.949Z" fill="#102770"/>
<path d="M141.245 325.385L141.115 325.264L141.053 325.201L140.936 325.071C140.88 325.005 140.825 324.933 140.776 324.86C140.725 324.787 140.68 324.711 140.638 324.632L140.579 324.515C140.531 324.392 140.608 324.62 140.462 324.211C140.358 323.884 140.273 323.325 140.487 322.707C140.693 322.086 141.184 321.619 141.545 321.422C141.997 321.184 142.076 321.202 142.105 321.184C142.174 321.165 142.246 321.148 142.319 321.136C142.611 321.082 142.926 321.085 143.205 321.138L143.306 321.161L143.364 321.175C143.434 321.195 143.53 321.226 143.578 321.243L143.655 321.275C143.714 321.3 143.75 321.319 143.772 321.33C143.89 321.392 143.944 321.43 144.011 321.474L144.34 321.703L144.918 322.137L146.036 322.987C146.777 323.55 147.517 324.104 148.265 324.643C149.014 325.179 149.769 325.703 150.537 326.182C150.923 326.421 151.312 326.648 151.703 326.845C152.072 327.038 152.541 327.215 152.768 327.224L152.903 327.229C153.09 327.236 153.237 327.394 153.23 327.581C153.225 327.71 153.149 327.818 153.042 327.871C152.697 328.045 152.423 328.04 152.154 328.055C151.886 328.06 151.632 328.045 151.381 328.021C150.882 327.971 150.398 327.891 149.919 327.8C148.962 327.615 148.027 327.386 147.099 327.144C146.173 326.9 145.253 326.639 144.34 326.375L142.981 325.978L142.321 325.789C142.215 325.762 142.109 325.734 142.023 325.717C141.987 325.712 141.936 325.7 141.949 325.719C141.945 325.719 141.952 325.726 141.984 325.741L142.021 325.758C142.054 325.771 142.136 325.799 142.192 325.813L142.332 325.845C142.604 325.897 142.91 325.9 143.196 325.847C143.267 325.833 143.337 325.816 143.405 325.798C143.433 325.779 143.509 325.798 143.961 325.562C144.321 325.367 144.811 324.901 145.017 324.281C145.231 323.666 145.145 323.108 145.041 322.783C144.891 322.376 144.972 322.604 144.925 322.485L144.869 322.37C144.831 322.296 144.786 322.223 144.738 322.152C144.69 322.08 144.638 322.013 144.585 321.949L144.475 321.828L144.428 321.779L144.331 321.688C145.352 322.539 145.488 324.057 144.637 325.078C143.785 326.099 142.267 326.237 141.245 325.385Z" fill="#102770"/>
<path d="M265.368 152.566V209.366C265.368 218.66 257.832 226.204 248.53 226.204H118.646C109.352 226.204 101.807 218.66 101.807 209.366V152.566C101.807 150.23 102.288 147.999 103.147 145.969C105.717 139.949 111.687 135.728 118.646 135.728H248.53C256.067 135.728 262.446 140.68 264.598 147.51C265.096 149.107 265.368 150.809 265.368 152.566Z" fill="white"/>
<path d="M118.646 136.08C112.028 136.08 106.072 140.016 103.471 146.107C102.601 148.166 102.159 150.34 102.159 152.566V209.366C102.159 218.457 109.555 225.852 118.646 225.852H248.53C257.621 225.852 265.016 218.457 265.016 209.366V152.566C265.016 150.888 264.763 149.222 264.261 147.615C262.09 140.715 255.767 136.08 248.53 136.08H118.646ZM248.53 226.556H118.646C109.166 226.556 101.455 218.844 101.455 209.366V152.566C101.455 150.245 101.915 147.979 102.824 145.832C105.534 139.479 111.744 135.376 118.646 135.376H248.53C256.077 135.376 262.668 140.21 264.933 147.405C265.455 149.08 265.72 150.816 265.72 152.566V209.366C265.72 218.844 258.009 226.556 248.53 226.556Z" fill="#102770"/>
<path d="M252.674 160.552C250.301 157.524 247.775 154.597 245.069 151.73C245.585 151.346 246.096 150.956 246.597 150.56C250.401 147.567 253.809 144.29 256.812 140.752C259.852 142.891 262.034 146.171 262.727 149.966C259.736 153.736 256.371 157.277 252.674 160.552ZM116.174 160.552C111.947 156.806 108.15 152.713 104.854 148.327C105.806 145.231 107.775 142.577 110.369 140.752C113.372 144.29 116.779 147.567 120.582 150.56C121.405 151.206 122.244 151.838 123.098 152.454C120.649 155.088 118.347 157.779 116.174 160.552Z" fill="#B7BED4"/>
<path d="M118.65 138.134C110.693 138.134 104.219 144.608 104.219 152.565V209.361C104.219 217.319 110.693 223.793 118.65 223.793H248.53C256.488 223.793 262.962 217.319 262.962 209.361V152.565C262.962 144.608 256.488 138.134 248.53 138.134H118.65ZM248.53 228.608H118.65C108.037 228.608 99.4033 219.975 99.4033 209.361V152.565C99.4033 141.951 108.037 133.319 118.65 133.319H248.53C259.142 133.319 267.777 141.951 267.777 152.565V209.361C267.777 219.975 259.142 228.608 248.53 228.608Z" fill="#102770"/>
<path d="M263.191 231.579C257.975 234.233 251.998 236.761 245.753 239.14C205.125 255.754 163.752 255.012 121.71 238.612C115.965 236.381 110.481 234.036 105.659 231.579C91.2061 224.223 93.0998 210.826 99.7455 194.437C106.807 177.027 114.924 164.792 124.751 154.211C125.765 153.127 126.793 152.049 127.835 151.001H241.008C244.669 154.696 248.098 158.547 251.329 162.736C257.271 170.431 262.536 179.245 267.31 190.192C267.915 191.572 268.513 192.987 269.098 194.437C275.743 210.826 277.637 224.223 263.191 231.579Z" fill="white"/>
<path d="M263.191 231.579H263.198H263.191ZM127.981 151.353C127.075 152.268 126.102 153.283 125.009 154.451C114.37 165.905 106.679 178.279 100.071 194.569C94.1757 209.108 90.7923 223.617 105.818 231.265C110.242 233.52 115.483 235.816 121.837 238.284C164.314 254.853 205.961 255.032 245.621 238.814C252.523 236.183 258.217 233.715 263.032 231.265C278.053 223.616 274.668 209.108 268.773 194.569C268.215 193.187 267.631 191.801 266.987 190.334C262.444 179.911 257.231 170.956 251.05 162.951C247.998 158.994 244.664 155.199 240.862 151.353H127.981ZM185.458 251.552C164.478 251.552 143.137 247.347 121.582 238.94C115.205 236.462 109.944 234.157 105.5 231.892C89.9672 223.988 93.3985 209.154 99.4204 194.304C106.06 177.931 113.795 165.491 124.494 153.971C125.633 152.752 126.645 151.699 127.586 150.751C127.652 150.685 127.742 150.649 127.835 150.649H241.009C241.103 150.649 241.193 150.687 241.259 150.753C245.124 154.656 248.51 158.505 251.608 162.521C257.824 170.571 263.066 179.577 267.632 190.051C268.278 191.525 268.866 192.916 269.425 194.306C275.446 209.154 278.878 223.986 263.351 231.892C258.513 234.355 252.798 236.833 245.879 239.468C226.181 247.523 205.992 251.552 185.458 251.552Z" fill="#102770"/>
<path d="M198.376 226.613H169.051C163.317 226.613 158.668 221.964 158.668 216.231V202.409C158.668 196.674 163.317 192.026 169.051 192.026H198.376C204.109 192.026 208.759 196.674 208.759 202.409V216.231C208.759 221.964 204.109 226.613 198.376 226.613Z" fill="white"/>
<path d="M169.051 192.378C163.52 192.378 159.02 196.878 159.02 202.409V216.231C159.02 221.761 163.52 226.261 169.051 226.261H198.376C203.907 226.261 208.407 221.761 208.407 216.231V202.409C208.407 196.878 203.907 192.378 198.376 192.378H169.051ZM198.376 226.965H169.051C163.132 226.965 158.316 222.15 158.316 216.231V202.409C158.316 196.49 163.132 191.674 169.051 191.674H198.376C204.296 191.674 209.111 196.49 209.111 202.409V216.231C209.111 222.15 204.296 226.965 198.376 226.965Z" fill="#102770"/>
<path d="M160.675 215.261V202.409C160.675 197.791 164.433 194.033 169.051 194.033H181.579C181.591 194.248 181.601 194.465 181.61 194.68C181.62 194.939 181.63 195.199 181.64 195.458H172.864C167.134 195.458 162.479 200.104 162.479 205.843V214.861C161.9 214.962 161.299 215.095 160.675 215.261ZM189.202 195.458H186.282C186.241 195.08 186.199 194.703 186.155 194.326C186.144 194.228 186.133 194.131 186.122 194.033H190.244C189.882 194.49 189.535 194.965 189.202 195.458Z" fill="white"/>
<path d="M169.051 194.033C164.433 194.033 160.675 197.791 160.675 202.409V216.231C160.675 220.849 164.433 224.607 169.051 224.607H198.377C202.995 224.607 206.751 220.849 206.751 216.231V202.409C206.751 197.791 202.995 194.033 198.377 194.033H169.051ZM198.377 228.62H169.051C162.22 228.62 156.662 223.063 156.662 216.231V202.409C156.662 195.577 162.22 190.02 169.051 190.02H198.377C205.208 190.02 210.765 195.577 210.765 202.409V216.231C210.765 223.063 205.208 228.62 198.377 228.62Z" fill="#102770"/>
<path d="M185.068 209.319H170.643C168.569 209.319 166.886 207.638 166.886 205.563C166.886 203.489 168.569 201.806 170.643 201.806H185.068C187.142 201.806 188.824 203.489 188.824 205.563C188.824 207.638 187.142 209.319 185.068 209.319Z" fill="#EE346A"/>
<path d="M197.641 209.319H196.727C194.653 209.319 192.971 207.638 192.971 205.563C192.971 203.489 194.653 201.806 196.727 201.806H197.641C199.716 201.806 201.397 203.489 201.397 205.563C201.397 207.638 199.716 209.319 197.641 209.319Z" fill="#EE346A"/>
<path d="M201.965 233.565C202.916 230.287 199.79 228.238 196.908 228.147C202.412 218.361 191.979 212.365 183.103 218.097C181.33 219.241 179.101 219.089 177.405 217.835C174.428 215.631 170.011 218.344 170.832 221.928C171.108 223.126 170.767 224.423 169.897 225.293C167.568 227.62 168.668 231.754 169.575 234.038C175.419 236.538 180.298 240.22 183.712 245.692C187.686 238.366 193.236 233.491 201.965 233.565Z" fill="#F3825B"/>
<path d="M169.531 229.908L170.78 225.857C170.794 225.946 170.811 226.035 170.831 226.123C171.104 227.32 170.767 228.62 169.9 229.487C169.766 229.621 169.642 229.762 169.531 229.908Z" fill="#FAC7B5"/>
<path d="M180.498 218.872C180.941 218.869 181.383 218.808 181.816 218.684C181.383 218.809 180.941 218.871 180.498 218.872ZM177.65 218.005C177.566 217.95 177.485 217.894 177.405 217.835C177.189 217.674 176.965 217.54 176.737 217.431C176.965 217.54 177.189 217.674 177.405 217.833C177.485 217.892 177.566 217.95 177.65 218.005Z" fill="white"/>
<path d="M198.142 225.136C197.205 221.991 194.048 220.062 190.259 220.062C189.241 220.062 188.177 220.201 187.098 220.493C187.187 219.078 187.247 217.663 187.284 216.248C188.299 215.989 189.299 215.865 190.259 215.865C192.479 215.865 194.481 216.527 195.949 217.708C195.719 218.044 195.509 218.41 195.318 218.805L198.279 224.531C198.241 224.731 198.196 224.932 198.142 225.136ZM180.476 223.069C179.399 223.069 178.322 222.715 177.404 222.03C176.661 221.483 175.829 221.239 175.01 221.239C173.774 221.239 172.572 221.794 171.757 222.685L172.953 218.805C172.796 218.478 172.624 218.171 172.438 217.882C173.179 217.352 174.085 217.042 175.01 217.042C175.591 217.042 176.179 217.164 176.737 217.43C176.965 217.54 177.189 217.674 177.404 217.835C177.484 217.894 177.566 217.95 177.649 218.005C178.511 218.577 179.494 218.872 180.476 218.872C180.483 218.872 180.49 218.872 180.497 218.872C180.941 218.871 181.383 218.809 181.815 218.684C181.776 220.097 181.729 221.508 181.679 222.919C181.283 223.02 180.879 223.069 180.476 223.069Z" fill="#FAC7B5"/>
<path d="M222.085 210.545L219.564 190.111C219.121 186.518 216.066 183.909 212.565 183.909C212.187 183.909 211.804 183.94 211.418 184.003C205.401 184.983 199.068 185.496 192.657 185.496C190.087 185.496 187.507 185.414 184.927 185.247C184.558 182.866 184.153 180.492 183.716 178.125C183.202 175.385 182.645 172.655 182.03 169.938C182.549 169.945 183.069 169.948 183.59 169.948C205.588 169.948 225.715 164.506 241.073 154.513C244.289 157.885 247.246 161.345 249.987 164.962C248.141 167.66 245.635 170.131 242.597 172.351C239.579 174.556 237.95 178.186 238.474 181.886L241.346 202.151L230.443 206.903C230.066 206.668 229.684 206.445 229.296 206.231C229.027 206.083 228.737 206.013 228.449 206.013C227.828 206.013 227.226 206.342 226.905 206.924C226.632 207.421 226.625 207.993 226.834 208.476L222.085 210.545ZM181.092 184.934C180.957 184.92 180.822 184.907 180.686 184.893C177.031 178.936 171.68 175.14 166.024 174.597C165.536 174.549 165.051 174.526 164.569 174.526C160.83 174.526 157.281 175.944 154.222 178.622C142.416 173.901 132.333 166.619 126.021 156.387C126.393 155.983 126.768 155.579 127.145 155.178C141.509 164.207 159.878 169.348 179.974 169.898C180.219 172.775 180.444 175.651 180.658 178.522C180.817 180.661 180.961 182.798 181.092 184.934Z" fill="#B7BED4"/>
<path d="M227.326 245.458L213.874 249.312C208.617 259.255 197.734 264.304 188.713 259.046C175.229 249.047 192.067 231.758 203.192 234.029L195.318 218.805C197.509 214.285 202.244 213.508 209.291 216.132L218.136 212.272C229.742 214.51 234.887 233.227 227.326 245.458Z" fill="#418BF9"/>
<path d="M197.711 223.419L195.318 218.805C196.68 215.996 199.024 214.633 202.295 214.633C204.289 214.633 206.625 215.138 209.291 216.132L217.974 212.342C218.004 213.105 218.533 213.789 219.313 213.981C223.205 214.937 225.587 217.73 227.029 220.52C225.186 218.727 222.98 217.473 220.472 216.99L211.627 220.851C208.959 219.858 206.622 219.352 204.628 219.352C201.4 219.352 199.075 220.68 197.711 223.419Z" fill="#A9CBFC"/>
<path d="M140.946 245.458L154.398 249.312C159.655 259.255 170.538 264.304 179.56 259.046C193.043 249.047 175.761 234.038 168.506 233.23L172.954 218.805C170.763 214.285 166.028 213.508 158.981 216.132L150.136 212.272C138.531 214.51 133.387 233.227 140.946 245.458Z" fill="#418BF9"/>
<path d="M137.893 223.347C139.923 217.688 143.855 213.291 149.121 212.271L149.465 212.421C145.376 213.456 142.142 216.571 140.052 220.691C139.263 221.484 138.542 222.375 137.893 223.347Z" fill="white"/>
<path d="M162.479 215.065V214.861C163.357 214.709 164.185 214.633 164.961 214.633C165.131 214.633 165.297 214.636 165.461 214.643C164.536 214.682 163.542 214.823 162.479 215.065Z" fill="white"/>
<path d="M160.675 215.552V215.261C161.299 215.095 161.9 214.963 162.479 214.861V215.065C161.897 215.198 161.297 215.361 160.675 215.552Z" fill="white"/>
<path d="M158.981 216.133L158.521 215.931C159.266 215.668 159.984 215.444 160.675 215.261V215.552C160.126 215.723 159.561 215.916 158.981 216.133Z" fill="#939EBF"/>
<path d="M169.546 223.419C168.182 220.68 165.857 219.352 162.629 219.352C160.635 219.352 158.298 219.858 155.63 220.851L146.785 216.99C144.197 217.488 141.932 218.809 140.052 220.691C142.141 216.572 145.375 213.456 149.464 212.421L157.966 216.132C158.152 216.062 158.336 215.996 158.52 215.931L158.981 216.132C159.561 215.916 160.126 215.723 160.675 215.552C161.297 215.361 161.897 215.197 162.478 215.065C163.541 214.823 164.535 214.682 165.46 214.643C168.472 214.778 170.647 216.141 171.938 218.805L169.546 223.419Z" fill="#A9CBFC"/>
<path d="M171.016 258.69C169.839 258.69 168.656 258.528 167.503 258.213C164.185 257.296 161.2 255.163 158.806 252.523C156.406 249.862 154.593 246.629 153.414 243.133C152.931 241.782 152.541 240.396 152.21 238.97C156.542 245.917 161.95 248.671 166.47 248.671C171.634 248.671 175.637 245.071 175.533 240.018C176.685 241.109 177.713 242.298 178.566 243.574C180.136 245.875 181.102 248.458 180.918 250.834C180.835 252.023 180.459 253.168 179.799 254.231C179.153 255.263 178.249 256.211 177.186 257.039C175.744 257.875 174.162 258.387 172.544 258.599C172.037 258.659 171.527 258.69 171.016 258.69Z" fill="#326DD0"/>
<path d="M139.361 242.381C128.114 238.597 116.066 234.176 106.749 229.434C95.6569 223.789 94.3193 214.23 101.976 195.342C102.09 195.061 102.205 194.779 102.321 194.5C102.593 212.273 111.117 224.58 126.327 227.609L137.411 231.198C137.254 234.963 137.864 238.84 139.361 242.381Z" fill="#B7BED4"/>
<path d="M149.29 245.644C146.12 244.621 142.776 243.53 139.361 242.381C137.864 238.84 137.254 234.963 137.411 231.198L149.074 234.975C148.351 237.991 148.321 241.217 148.97 244.33C149.066 244.769 149.171 245.209 149.29 245.644Z" fill="#326DD0"/>
<path d="M213.565 252.298C212.547 252.298 211.601 251.646 211.273 250.624C210.868 249.358 211.565 248.002 212.832 247.597L215.634 246.698C230.675 241.889 249.396 235.901 262.098 229.434C273.189 223.789 274.528 214.23 266.872 195.342C259.971 178.321 251.662 165.344 240.003 153.405H128.844C117.185 165.344 108.876 178.321 101.976 195.342C94.319 214.23 95.6565 223.789 106.749 229.434C120.412 236.389 139.954 242.655 154.223 247.229C155.49 247.636 156.187 248.991 155.782 250.258C155.375 251.525 154.015 252.221 152.753 251.815C138.328 247.191 118.573 240.857 104.563 233.725C87.5114 225.046 91.4312 208.538 97.5137 193.533C104.801 175.553 113.625 161.912 126.125 149.303C126.577 148.846 127.193 148.59 127.835 148.59H241.011C241.655 148.59 242.27 148.846 242.722 149.303C255.22 161.912 264.044 175.553 271.335 193.533C277.416 208.538 281.334 225.046 264.282 233.725C251.233 240.368 232.307 246.422 217.101 251.286L214.302 252.183C214.058 252.26 213.809 252.298 213.565 252.298Z" fill="#102770"/>
<path d="M124.922 201.28C128.029 202.154 131.11 203.09 134.162 204.093C137.219 205.083 140.256 206.12 143.278 207.189C144.789 207.726 146.233 208.414 147.678 209.101C149.129 209.773 150.596 210.411 152.064 211.047L160.858 214.882C162.021 215.389 162.552 216.744 162.045 217.907C161.538 219.07 160.183 219.6 159.022 219.094L150.228 215.258C148.762 214.618 147.296 213.977 145.816 213.37C144.33 212.779 142.843 212.189 141.422 211.447C138.581 209.96 135.755 208.439 132.949 206.874C130.138 205.319 127.356 203.699 124.601 202.016C124.409 201.899 124.35 201.65 124.466 201.459C124.563 201.301 124.752 201.232 124.922 201.28Z" fill="#102770"/>
<path d="M139.653 183.826C139.89 185.692 140.012 187.546 140.114 189.399C140.201 191.249 140.256 193.098 140.266 194.942C140.273 196.787 140.283 198.631 140.16 200.463C140.04 202.296 139.874 204.125 139.49 205.934C139.245 207.083 138.116 207.817 136.967 207.572C135.988 207.363 135.312 206.513 135.283 205.557C135.225 203.708 135.388 201.879 135.597 200.055C135.801 198.23 136.139 196.416 136.473 194.603C136.81 192.789 137.193 190.98 137.609 189.174C138.038 187.369 138.487 185.565 139.052 183.773C139.103 183.609 139.277 183.519 139.439 183.571C139.557 183.608 139.638 183.711 139.653 183.826Z" fill="#102770"/>
<path d="M229.584 183.745C230.306 185.417 230.916 187.111 231.506 188.808C232.082 190.508 232.625 192.215 233.123 193.93C233.62 195.645 234.119 197.36 234.488 199.099C234.859 200.837 235.186 202.585 235.295 204.373C235.366 205.546 234.474 206.555 233.301 206.627C232.308 206.688 231.432 206.057 231.144 205.152C230.597 203.445 230.268 201.699 229.984 199.943C229.698 198.189 229.541 196.409 229.381 194.631C229.226 192.853 229.113 191.066 229.033 189.272C228.968 187.476 228.922 185.676 228.99 183.856C228.997 183.684 229.14 183.552 229.311 183.557C229.433 183.562 229.537 183.638 229.584 183.745Z" fill="#102770"/>
<path d="M171.64 218.248C169.98 217.528 168.519 217.05 167.171 216.966C165.827 216.881 164.66 217.101 163.549 217.563C162.443 218.039 161.382 218.746 160.272 219.662C159.136 220.567 158.046 221.694 156.572 222.931L156.557 222.944C156.365 223.106 156.079 223.081 155.919 222.889C155.861 222.822 155.827 222.741 155.816 222.661C155.543 220.707 156.027 218.762 157.045 217.018C158.077 215.293 159.778 213.801 161.879 213.088C163.958 212.345 166.376 212.449 168.292 213.383C170.227 214.288 171.616 215.913 172.239 217.712C172.316 217.94 172.195 218.188 171.968 218.265C171.861 218.303 171.75 218.296 171.654 218.254L171.64 218.248Z" fill="#102770"/>
<path d="M163.986 233.639C165.561 232.918 167.38 232.711 169.14 232.841C170.911 232.962 172.648 233.425 174.282 234.104C177.559 235.467 180.44 237.707 182.69 240.581C183.787 242.036 184.743 243.661 185.357 245.485C185.99 247.294 186.269 249.316 186.043 251.333C185.821 253.351 185.06 255.317 183.949 256.937C182.846 258.576 181.443 259.881 179.983 260.988C179.915 261.04 179.832 261.095 179.759 261.136C177.758 262.278 175.522 263.096 173.202 263.411C170.886 263.752 168.515 263.612 166.265 263.084C161.755 262.002 157.8 259.394 154.854 256.047C151.895 252.696 149.89 248.599 148.97 244.33C148.078 240.053 148.469 235.561 150.18 231.698C150.273 231.488 150.518 231.392 150.728 231.485C150.864 231.546 150.953 231.671 150.971 231.809L150.973 231.819C151.531 235.91 152.164 239.634 153.414 243.133C154.594 246.629 156.406 249.862 158.807 252.523C161.2 255.163 164.185 257.296 167.504 258.213C169.158 258.666 170.872 258.801 172.544 258.599C174.214 258.38 175.847 257.841 177.326 256.957L177.102 257.105C178.201 256.261 179.136 255.29 179.8 254.231C180.46 253.168 180.836 252.023 180.919 250.834C181.102 248.458 180.136 245.875 178.566 243.574C177.01 241.247 174.867 239.201 172.465 237.537C170.037 235.898 167.321 234.619 164.147 234.425H164.133C163.906 234.411 163.733 234.215 163.746 233.988C163.756 233.832 163.853 233.701 163.986 233.639Z" fill="#102770"/>
<path d="M242.654 202.016C239.899 203.699 237.117 205.319 234.306 206.874C231.5 208.439 228.674 209.96 225.833 211.447C224.413 212.189 222.926 212.779 221.439 213.37C219.959 213.977 218.493 214.618 217.029 215.258L208.233 219.094C207.072 219.6 205.717 219.07 205.21 217.907C204.704 216.744 205.234 215.389 206.397 214.882L215.192 211.047C216.659 210.411 218.126 209.773 219.578 209.101C221.022 208.414 222.467 207.726 223.977 207.189C226.999 206.12 230.036 205.083 233.093 204.093C236.145 203.09 239.226 202.154 242.333 201.28C242.549 201.219 242.773 201.345 242.833 201.56C242.884 201.739 242.805 201.923 242.654 202.016Z" fill="#102770"/>
<path d="M195.018 217.712C195.639 215.913 197.029 214.288 198.963 213.383C200.88 212.449 203.299 212.345 205.377 213.089C207.478 213.801 209.178 215.293 210.21 217.018C211.228 218.763 211.713 220.707 211.44 222.661C211.404 222.908 211.176 223.081 210.929 223.047C210.841 223.035 210.764 222.998 210.7 222.946L210.684 222.932C209.209 221.694 208.12 220.568 206.983 219.662C205.875 218.746 204.812 218.039 203.707 217.563C202.596 217.101 201.429 216.882 200.084 216.966C198.737 217.051 197.275 217.528 195.615 218.249L195.603 218.254C195.382 218.35 195.125 218.249 195.03 218.028C194.985 217.925 194.983 217.812 195.018 217.712Z" fill="#102770"/>
<path d="M203.108 234.425C199.935 234.619 197.219 235.898 194.79 237.537C192.388 239.201 190.245 241.247 188.689 243.574C187.119 245.875 186.153 248.458 186.337 250.833C186.42 252.023 186.796 253.168 187.456 254.231C188.119 255.29 189.054 256.261 190.154 257.105L189.93 256.957C191.408 257.841 193.041 258.38 194.711 258.599C196.384 258.801 198.099 258.666 199.752 258.213C203.07 257.296 206.055 255.163 208.449 252.523C210.849 249.862 212.662 246.629 213.841 243.133C215.09 239.634 215.725 235.91 216.283 231.819L216.284 231.809C216.315 231.582 216.525 231.423 216.752 231.454C216.9 231.474 217.019 231.571 217.076 231.698C218.788 235.561 219.178 240.053 218.285 244.33C217.366 248.599 215.361 252.696 212.401 256.047C209.456 259.394 205.501 262.002 200.991 263.084C198.742 263.612 196.37 263.752 194.054 263.411C191.733 263.096 189.497 262.278 187.497 261.136C187.422 261.093 187.339 261.039 187.273 260.988C185.813 259.881 184.409 258.576 183.307 256.937C182.196 255.317 181.434 253.351 181.213 251.333C180.986 249.316 181.265 247.294 181.899 245.485C182.512 243.661 183.468 242.036 184.567 240.581C186.815 237.707 189.696 235.467 192.974 234.104C194.607 233.425 196.344 232.962 198.116 232.841C199.876 232.711 201.695 232.918 203.269 233.639C203.476 233.734 203.567 233.979 203.472 234.186C203.407 234.328 203.27 234.415 203.124 234.425H203.108Z" fill="#102770"/>
<path d="M141.674 247.452C141.138 247.452 140.608 247.207 140.262 246.745C135.735 240.686 134.596 230.291 137.554 222.029C139.721 215.978 143.768 211.942 148.949 210.667C149.888 210.436 150.846 211.01 151.078 211.955C151.312 212.898 150.735 213.852 149.79 214.084C145.793 215.07 142.625 218.312 140.869 223.215C138.322 230.331 139.274 239.54 143.082 244.639C143.664 245.416 143.505 246.52 142.726 247.101C142.411 247.338 142.04 247.452 141.674 247.452Z" fill="#102770"/>
<path d="M227.164 247.452C226.797 247.452 226.428 247.338 226.111 247.101C225.332 246.518 225.175 245.414 225.756 244.637C229.646 239.439 230.64 230.107 228.072 222.929C226.854 219.529 224.348 215.217 219.313 213.981C218.368 213.749 217.792 212.796 218.023 211.852C218.256 210.908 219.206 210.332 220.154 210.563C225.265 211.819 229.255 215.789 231.385 221.742C234.366 230.07 233.185 240.585 228.575 246.746C228.228 247.208 227.699 247.452 227.164 247.452Z" fill="#102770"/>
<path d="M268.214 74.0894C288.9 74.9919 286.899 120.834 266.212 119.932L268.214 74.0894Z" fill="#418BF9"/>
<path d="M266.828 120.298C266.62 120.298 266.41 120.292 266.197 120.284C266.003 120.276 265.852 120.111 265.859 119.917C265.869 119.722 266.04 119.567 266.227 119.58C266.427 119.588 266.627 119.593 266.823 119.593C276.847 119.594 281.91 108.334 282.377 97.6718C282.851 86.8022 278.616 74.8949 268.198 74.4415C268.004 74.4316 267.853 74.2683 267.862 74.074C267.87 73.8797 268.021 73.7248 268.229 73.7375C279.13 74.2134 283.569 86.4938 283.079 97.7028C282.6 108.692 277.311 120.297 266.828 120.298Z" fill="#102770"/>
<path d="M268.965 119.413C271.042 113.406 272.327 106.987 272.796 100.213C276.924 98.8786 280.025 95.4037 282.058 90.9375C282.372 93.1537 282.473 95.4347 282.376 97.6719C281.945 107.546 277.572 117.933 268.965 119.413Z" fill="#326DD0"/>
<path d="M268.835 119.79C268.878 119.665 268.924 119.539 268.966 119.413C277.573 117.933 281.946 107.546 282.377 97.6719C282.474 95.4346 282.373 93.1537 282.059 90.9375C282.15 90.7362 282.239 90.532 282.326 90.3279C284.314 102.76 279.576 118.074 268.835 119.79Z" fill="#102770"/>
<path d="M98.961 74.0897C78.2749 74.9922 80.2799 120.847 100.967 119.945L98.961 74.0897Z" fill="#418BF9"/>
<path d="M98.308 119.794C98.308 119.794 98.3066 119.794 98.3051 119.794C98.3066 119.794 98.3066 119.794 98.308 119.794ZM98.2763 119.788C98.2749 119.788 98.2735 119.788 98.272 119.788C98.2735 119.788 98.2763 119.788 98.2763 119.788ZM98.2447 119.784C98.2432 119.784 98.2418 119.783 98.2404 119.783C98.2418 119.783 98.2432 119.784 98.2447 119.784Z" fill="#06A4D4"/>
<path d="M98.3489 119.801C98.3349 119.798 98.3208 119.797 98.3067 119.794C98.3053 119.794 98.3053 119.794 98.3039 119.794C98.294 119.793 98.2856 119.791 98.2757 119.788C98.2757 119.788 98.2729 119.788 98.2715 119.788C98.263 119.787 98.2532 119.786 98.2448 119.784C98.2433 119.784 98.2419 119.783 98.2405 119.783C91.3231 118.618 86.9161 111.791 85.2139 103.754C86.5712 110.152 89.642 115.781 94.3291 118.399C90.3389 114.062 88.1763 107.069 87.9538 100.05C89.7602 102.977 92.1327 105.248 95.0557 106.415C95.747 111.073 96.848 115.542 98.3489 119.801Z" fill="#326DD0"/>
<path d="M86.053 85.425C86.053 85.4236 86.0544 85.4237 86.0544 85.4222C86.0544 85.4237 86.053 85.4236 86.053 85.425ZM86.06 85.4053C86.0614 85.4011 86.0642 85.3941 86.0657 85.3898C86.0628 85.3955 86.0614 85.3997 86.06 85.4053ZM86.0685 85.38C86.0713 85.3716 86.0741 85.3659 86.0769 85.3575C86.0741 85.3645 86.0713 85.373 86.0685 85.38ZM86.0769 85.3546C87.8946 80.0367 91.2161 75.8592 96.1201 74.5245C91.2175 75.8592 87.8946 80.0381 86.0769 85.3546ZM96.1201 74.5245C96.1285 74.523 96.137 74.5202 96.1454 74.5174C96.137 74.5202 96.1271 74.523 96.1201 74.5245ZM96.1468 74.5174C96.1553 74.5146 96.1651 74.5118 96.1736 74.5104C96.1637 74.5132 96.1567 74.5146 96.1468 74.5174ZM96.1736 74.5104C96.2088 74.5005 96.2454 74.4907 96.2806 74.4822C96.2454 74.4907 96.2088 74.5005 96.1736 74.5104ZM96.2834 74.4808C96.2918 74.4794 96.2975 74.478 96.3059 74.4752C96.2975 74.478 96.2918 74.4794 96.2834 74.4808ZM96.313 74.4738C96.32 74.4724 96.3256 74.4709 96.3313 74.4695C96.3256 74.4709 96.3186 74.4724 96.313 74.4738ZM96.3397 74.4667C96.3467 74.4653 96.351 74.4639 96.3566 74.4625C96.3524 74.4639 96.3453 74.4653 96.3397 74.4667ZM96.3679 74.4597C96.3721 74.4583 96.3777 74.4583 96.3819 74.4569C96.3763 74.4583 96.3735 74.4583 96.3679 74.4597ZM96.3932 74.4541C96.3988 74.4526 96.4031 74.4512 96.4073 74.4498C96.4031 74.4512 96.3974 74.4526 96.3932 74.4541ZM96.42 74.447C96.4242 74.4456 96.4242 74.4456 96.4284 74.4456C96.427 74.4456 96.4214 74.447 96.42 74.447Z" fill="#8DEEFF"/>
<path d="M85.2139 103.754C83.9298 97.6985 84.1818 90.9515 86.053 85.4251C86.053 85.4237 86.0544 85.4237 86.0544 85.4223C86.0558 85.4153 86.0573 85.4111 86.0601 85.4054C86.0615 85.3998 86.0629 85.3956 86.0657 85.3899C86.0657 85.3871 86.0671 85.3843 86.0685 85.3801C86.0713 85.3731 86.0742 85.3646 86.077 85.3576V85.3547C87.8947 80.0382 91.2175 75.8593 96.1201 74.5245C96.1272 74.5231 96.137 74.5203 96.1455 74.5175C96.1469 74.5175 96.1469 74.5175 96.1469 74.5175C96.1567 74.5147 96.1638 74.5133 96.1736 74.5105C96.1736 74.5105 96.1722 74.5105 96.1736 74.5105C96.2088 74.5006 96.2454 74.4908 96.2806 74.4823C96.282 74.4823 96.282 74.4823 96.2834 74.4809C96.2919 74.4795 96.2975 74.4781 96.306 74.4753C96.3074 74.4753 96.3116 74.4739 96.313 74.4739C96.3186 74.4725 96.3257 74.471 96.3313 74.4696C96.3341 74.4682 96.3369 74.4682 96.3398 74.4668C96.3454 74.4654 96.3524 74.464 96.3567 74.4626C96.3595 74.4626 96.3637 74.4612 96.3679 74.4598C96.3735 74.4584 96.3764 74.4584 96.382 74.4569C96.3862 74.4555 96.389 74.4541 96.3933 74.4541C96.3975 74.4527 96.4031 74.4513 96.4073 74.4499C96.4102 74.4499 96.4158 74.4485 96.42 74.4471C96.4214 74.4471 96.4271 74.4457 96.4285 74.4457C96.0554 76.0973 95.7287 77.7587 95.4471 79.4243C90.1277 83.4681 87.6933 91.7766 87.9538 100.05C86.4712 97.6464 85.3702 94.8023 84.662 91.7625C84.2001 95.7076 84.3916 99.8725 85.2139 103.754Z" fill="#A9CBFC"/>
<path d="M94.3289 118.399C89.6418 115.782 86.571 110.152 85.2137 103.755C84.3914 99.8728 84.1999 95.708 84.6617 91.7628C85.37 94.8026 86.471 97.6468 87.9536 100.05C88.1761 107.069 90.3387 114.062 94.3289 118.399Z" fill="#A3BDEA"/>
<path d="M270.59 94.335C270.59 141.617 231.638 167.54 183.59 167.54C135.542 167.54 96.5903 141.617 96.5903 94.335C96.5903 47.0536 135.542 3.27513 183.59 3.27513C231.638 3.27513 270.59 47.0536 270.59 94.335Z" fill="white"/>
<path d="M183.59 3.62692C137.432 3.62692 96.9423 46.0129 96.9423 94.3348C96.9423 137.911 131.763 167.188 183.59 167.188C235.416 167.188 270.237 137.911 270.237 94.3348C270.237 46.0129 229.749 3.62692 183.59 3.62692ZM183.59 167.892C159.303 167.892 137.38 161.163 121.855 148.945C105.096 135.755 96.2383 116.871 96.2383 94.3348C96.2383 71.3791 105.561 48.2346 121.814 30.8348C138.627 12.8351 160.566 2.92293 183.59 2.92293C206.614 2.92293 228.552 12.8351 245.365 30.8348C261.619 48.2346 270.941 71.3791 270.941 94.3348C270.941 116.871 262.083 135.755 245.325 148.945C229.801 161.163 207.876 167.892 183.59 167.892Z" fill="#102770"/>
<path d="M183.59 165.133C182.683 165.133 181.773 165.123 180.867 165.102C180.616 164.123 180.358 163.146 180.089 162.172C180.04 161.996 179.878 161.869 179.692 161.869C179.68 161.869 179.665 161.87 179.651 161.872C179.426 161.894 179.26 162.096 179.283 162.322V162.329C179.373 163.24 179.46 164.153 179.544 165.065C147.61 163.996 116.247 150.23 104.184 121.526C108.838 126.096 114.193 130.033 120.118 133.319C123.611 139.091 128.467 143.971 134.671 147.928C146.726 155.619 163.368 159.518 184.136 159.518C229.018 159.518 253.735 140.894 253.735 107.076C253.735 104.572 253.6 102.09 253.333 99.6388C256.617 91.512 258.408 82.3559 258.408 72.2212C258.408 64.1225 257.266 56.1265 255.129 48.4347C263.345 62.0091 268.181 77.8179 268.181 94.335C268.181 143.241 225.695 165.133 183.59 165.133Z" fill="#B7BED4"/>
<path d="M251.328 107.076C251.328 143.889 221.546 157.11 184.136 157.11C146.726 157.11 115.853 143.889 115.853 107.076C115.853 70.2629 146.18 41.2655 183.59 41.2655C221 41.2655 251.328 70.2629 251.328 107.076Z" fill="#102770"/>
<path d="M119.215 117.44C118.579 114.187 118.261 110.731 118.261 107.076C118.261 72.1154 147.568 43.6727 183.59 43.6727C194.707 43.6727 205.183 46.3803 214.356 51.1534C205.898 47.5053 196.519 45.4862 186.649 45.4862C149.241 45.4862 118.91 74.4836 118.91 111.291C118.91 113.419 119.013 115.467 119.215 117.44Z" fill="#939EBF"/>
<path d="M184.136 154.702C164.581 154.702 148.372 150.956 137.262 143.868C128.673 138.389 122.968 130.897 120.204 121.503C131.696 132.977 150.95 139.003 176.375 139.003C196.64 139.003 212.73 135.211 224.193 127.735C237.283 119.197 243.921 106.037 243.921 88.6185C243.921 86.3981 243.811 84.1875 243.591 81.9953C247.02 89.6927 248.92 98.1716 248.92 107.076C248.92 146.44 213.69 154.702 184.136 154.702Z" fill="#17296E"/>
<path d="M176.375 139.003C150.95 139.003 131.696 132.977 120.204 121.503C120.067 121.039 119.938 120.571 119.815 120.097C133.86 135.035 157.988 138.299 176.375 138.299C196.502 138.299 212.46 134.547 223.809 127.145C236.688 118.747 243.216 105.783 243.216 88.6185C243.216 85.7138 243.025 82.8232 242.646 79.9735C242.971 80.6395 243.288 81.3167 243.591 81.9953C243.811 84.1876 243.92 86.3981 243.92 88.6185C243.92 106.037 237.283 119.197 224.193 127.735C212.729 135.211 196.64 139.003 176.375 139.003Z" fill="#102770"/>
<path d="M183.59 5.68259C138.527 5.68259 98.9979 47.1083 98.9979 94.3349C98.9979 143.241 141.484 165.132 183.59 165.132C225.695 165.132 268.181 143.241 268.181 94.3349C268.181 47.1083 228.653 5.68259 183.59 5.68259ZM183.59 169.948C158.844 169.948 136.469 163.063 120.582 150.56C103.312 136.966 94.1826 117.524 94.1826 94.3349C94.1826 70.8652 103.708 47.2082 120.312 29.4296C137.518 11.0104 159.99 0.867294 183.59 0.867294C207.189 0.867294 229.662 11.0104 246.867 29.4296C263.473 47.2082 272.996 70.8652 272.996 94.3349C272.996 117.524 263.869 136.966 246.597 150.56C230.712 163.063 208.335 169.948 183.59 169.948Z" fill="#102770"/>
<path d="M183.59 43.673C147.568 43.673 118.26 72.1156 118.26 107.076C118.26 123.446 124.653 135.825 137.261 143.868C148.372 150.956 164.58 154.702 184.136 154.702C213.689 154.702 248.92 146.44 248.92 107.076C248.92 72.1156 219.613 43.673 183.59 43.673ZM184.136 159.518C163.368 159.518 146.726 155.619 134.671 147.928C120.586 138.943 113.445 125.198 113.445 107.076C113.445 88.6651 120.751 71.4623 134.019 58.6342C147.21 45.8807 164.815 38.8577 183.59 38.8577C202.365 38.8577 219.969 45.8807 233.16 58.6342C246.428 71.4623 253.735 88.6651 253.735 107.076C253.735 140.894 229.018 159.518 184.136 159.518Z" fill="#102770"/>
<path d="M266.846 122.353C266.603 122.353 266.356 122.348 266.107 122.336C264.778 122.279 263.749 121.155 263.806 119.826C263.864 118.497 264.982 117.469 266.317 117.525C275.3 117.901 279.891 107.463 280.322 97.5813C280.754 87.7015 277.115 76.8882 268.108 76.494C266.78 76.4363 265.749 75.3127 265.807 73.9835C265.865 72.6558 266.984 71.6181 268.319 71.6829C280.63 72.2207 285.665 85.5938 285.133 97.7911C284.612 109.743 278.668 122.352 266.846 122.353Z" fill="#102770"/>
<path d="M100.333 122.366C88.51 122.366 82.5655 109.752 82.0432 97.7956C81.763 91.3583 82.9992 85.2561 85.5237 80.6112C88.5199 75.0989 93.2563 71.9281 98.8573 71.6831C100.174 71.6409 101.31 72.6561 101.368 73.9838C101.425 75.3129 100.395 76.4365 99.0671 76.4942C95.1092 76.6674 91.9751 78.8258 89.7547 82.9104C87.6723 86.7415 86.6149 92.0905 86.8542 97.5858C87.095 103.081 88.6142 108.319 91.0233 111.956C93.5928 115.835 96.9129 117.713 100.862 117.54C102.2 117.49 103.315 118.511 103.373 119.839C103.43 121.168 102.401 122.293 101.072 122.351C100.824 122.361 100.576 122.366 100.333 122.366Z" fill="#102770"/>
<path d="M137.785 60.4333C136.822 60.4333 135.971 59.7364 135.809 58.7536C132.981 41.6255 135.33 24.4749 142.09 12.8773C142.649 11.9213 143.875 11.5975 144.834 12.1536C145.791 12.7112 146.115 13.9403 145.558 14.8978C139.253 25.7153 137.089 41.8649 139.768 58.1003C139.948 59.1929 139.209 60.2264 138.115 60.4066C138.004 60.4249 137.894 60.4333 137.785 60.4333Z" fill="#102770"/>
<path d="M229.609 60.4333C229.5 60.4333 229.39 60.4249 229.279 60.4066C228.185 60.2264 227.446 59.1929 227.626 58.1003C230.306 41.8649 228.141 25.7153 221.837 14.8978C221.279 13.9403 221.603 12.7112 222.56 12.1536C223.519 11.5975 224.745 11.9213 225.304 12.8773C232.064 24.4749 234.413 41.6255 231.585 58.7536C231.423 59.7364 230.572 60.4333 229.609 60.4333Z" fill="#102770"/>
<path d="M142.778 99.7456C142.522 99.7456 142.272 99.7287 142.027 99.6935C140.635 99.4894 139.437 98.6854 138.364 97.2338C136.049 94.1038 135.674 89.794 137.306 85.0998C138.99 80.2634 142.579 75.6297 147.416 72.052C152.252 68.4743 157.733 66.3975 162.85 66.206C163.109 66.1962 163.364 66.1906 163.617 66.1906C168.231 66.1906 171.95 67.8013 174.143 70.7679C175.216 72.2195 175.636 73.6008 175.423 74.9919C174.826 78.8948 169.335 82.9061 162.975 87.5483C162.107 88.1833 161.218 88.8309 160.318 89.4969C159.419 90.1615 158.539 90.8218 157.676 91.4681C151.769 95.8934 146.622 99.7456 142.778 99.7456Z" fill="#40528D"/>
<path d="M142.806 101.861C142.44 101.861 142.079 101.835 141.722 101.783C139.772 101.497 138.071 100.389 136.666 98.4886C133.923 94.7828 133.443 89.7802 135.313 84.4045C137.133 79.1711 140.985 74.1812 146.16 70.3543C151.334 66.5274 157.234 64.3042 162.771 64.0958C163.051 64.0845 163.33 64.0803 163.606 64.0803C168.921 64.0803 173.235 65.9881 175.841 69.5123C177.247 71.4117 177.808 73.3631 177.511 75.3118C176.782 80.0835 171.239 84.13 164.221 89.255C163.355 89.8872 162.47 90.5321 161.574 91.1952C160.679 91.857 159.802 92.5145 158.943 93.158C152.51 97.9775 147.327 101.861 142.806 101.861ZM163.617 66.1909C163.364 66.1909 163.109 66.1965 162.85 66.2064C157.733 66.3978 152.252 68.4746 147.416 72.0523C142.579 75.63 138.99 80.2637 137.306 85.1001C135.675 89.7943 136.049 94.1041 138.364 97.2341C139.437 98.6857 140.635 99.4897 142.027 99.6938C142.272 99.729 142.522 99.7459 142.778 99.7459C146.622 99.7459 151.769 95.8937 157.676 91.4684C158.539 90.8221 159.419 90.1618 160.318 89.4972C161.218 88.8312 162.107 88.1836 162.975 87.5486C169.335 82.9065 174.826 78.8951 175.423 74.9922C175.636 73.6011 175.216 72.2198 174.143 70.7682C171.95 67.8016 168.231 66.1909 163.617 66.1909Z" fill="#102770"/>
<path d="M196.216 70.647C188.836 70.647 187.842 68.4998 187.842 66.3977C187.842 62.6623 191.598 59.6225 196.216 59.6225C200.833 59.6225 204.59 62.6623 204.59 66.3977C204.59 68.4998 203.596 70.647 196.216 70.647Z" fill="#40528D"/>
<path d="M196.216 72.759C193.347 72.759 185.73 72.759 185.73 66.3978C185.73 61.498 190.434 57.5106 196.216 57.5106C201.997 57.5106 206.702 61.498 206.702 66.3978C206.702 72.759 199.084 72.759 196.216 72.759ZM196.216 59.6226C191.598 59.6226 187.842 62.6624 187.842 66.3978C187.842 68.4999 188.836 70.6471 196.216 70.6471C203.596 70.6471 204.59 68.4999 204.59 66.3978C204.59 62.6624 200.833 59.6226 196.216 59.6226Z" fill="#102770"/>
<path d="M169.576 236.044C168.777 236.044 168.023 235.566 167.71 234.779C166.634 232.068 165.304 227.047 168.478 223.874C168.845 223.506 169.001 222.919 168.876 222.377C168.324 219.964 169.353 217.497 171.499 216.093C173.732 214.632 176.517 214.681 178.598 216.221C179.664 217.01 180.973 217.083 182.015 216.411C187.433 212.913 193.897 212.991 197.738 216.604C200.442 219.147 201.14 222.801 199.77 226.697C201.126 227.211 202.297 228.053 203.076 229.124C204.119 230.563 204.409 232.338 203.891 234.124C203.583 235.187 202.469 235.799 201.405 235.491C200.34 235.181 199.729 234.069 200.037 233.004C200.212 232.403 200.146 231.919 199.829 231.482C199.287 230.739 198.061 230.191 196.844 230.152C196.143 230.129 195.504 229.744 195.16 229.131C194.815 228.52 194.815 227.774 195.159 227.163C196.906 224.055 196.844 221.273 194.988 219.527C192.884 217.546 188.5 217 184.192 219.782C181.749 221.359 178.616 221.228 176.212 219.447C175.343 218.805 174.343 219.029 173.697 219.45C173.417 219.634 172.523 220.323 172.787 221.479C173.221 223.365 172.656 225.37 171.316 226.711C169.662 228.365 170.992 232.171 171.44 233.297C171.848 234.327 171.346 235.494 170.315 235.904C170.073 235.999 169.822 236.044 169.576 236.044Z" fill="#102770"/>
<path d="M180.089 162.171C181.539 167.437 182.709 172.762 183.716 178.125C184.707 183.49 185.53 188.892 186.155 194.326C186.783 199.76 187.181 205.233 187.316 210.727C187.383 216.224 187.188 221.753 186.431 227.246C186.245 228.594 185 229.538 183.651 229.352C182.384 229.177 181.475 228.068 181.524 226.816L181.527 226.757C181.751 221.446 181.929 216.128 181.934 210.778C181.905 205.428 181.82 200.06 181.61 194.68C181.365 189.303 181.059 183.915 180.658 178.522C180.257 173.133 179.815 167.727 179.282 162.329V162.322C179.26 162.095 179.426 161.894 179.651 161.872C179.854 161.852 180.037 161.981 180.089 162.171Z" fill="#102770"/>
<path d="M185.572 205.302C189.107 189.129 203.555 181.964 216.412 191.448C212.112 203.472 197.184 209.31 185.572 205.302Z" fill="#87F230"/>
<path d="M186.068 205.022C197.742 208.829 211.795 202.516 215.907 191.601C210.384 187.629 204.323 186.585 198.813 188.657C192.557 191.013 187.927 196.966 186.068 205.022ZM193.432 207.026C190.748 207.026 188.043 206.6 185.434 205.701C185.233 205.63 185.115 205.421 185.161 205.212C187.024 196.683 191.893 190.362 198.515 187.869C204.389 185.658 210.833 186.808 216.664 191.108C216.813 191.22 216.873 191.415 216.81 191.59C213.465 200.945 203.592 207.026 193.432 207.026Z" fill="#102770"/>
<path d="M188.108 205.581C187.421 205.428 186.741 205.242 186.068 205.022C187.926 196.966 192.557 191.013 198.813 188.657C200.663 187.962 202.576 187.617 204.509 187.617C208.334 187.617 212.238 188.964 215.907 191.601C215.645 192.295 215.344 192.97 215.006 193.624C211.979 191.984 208.915 191.211 205.975 191.211C198.213 191.211 191.296 196.59 188.108 205.581Z" fill="#C9F9A2"/>
<path d="M187.971 205.977C187.153 205.794 186.355 205.572 185.576 205.304C188.025 194.083 195.725 187.198 204.507 187.198C208.385 187.198 212.474 188.542 216.417 191.446C216.118 192.273 215.772 193.061 215.378 193.831C215.254 193.761 215.13 193.692 215.006 193.624C215.344 192.97 215.645 192.295 215.907 191.601C212.238 188.964 208.333 187.616 204.509 187.616C202.576 187.616 200.663 187.961 198.813 188.657C192.557 191.013 187.926 196.965 186.068 205.022C186.741 205.242 187.421 205.427 188.108 205.581C188.061 205.713 188.016 205.844 187.971 205.977Z" fill="#939EBF"/>
<path d="M181.489 187.2C174.633 173.63 160.523 170.556 151.709 181.923C158.243 191.631 172.454 193.412 181.489 187.2Z" fill="#87F230"/>
<path d="M152.233 181.94C155.147 186.12 159.699 188.977 165.085 190.002C170.722 191.075 176.478 190.002 180.943 187.059C177.441 180.34 171.856 176.005 165.944 175.436C160.824 174.947 155.97 177.252 152.233 181.94ZM169.381 191.252C167.902 191.252 166.411 191.114 164.927 190.831C159.211 189.743 154.393 186.663 151.36 182.159C151.257 182.007 151.264 181.809 151.375 181.665C155.321 176.578 160.512 174.06 166.024 174.597C172.323 175.202 178.245 179.843 181.867 187.008C181.961 187.197 181.903 187.428 181.729 187.546C178.2 189.972 173.861 191.252 169.381 191.252Z" fill="#102770"/>
<path d="M179.869 187.715C175.924 182.23 170.591 179.264 165.271 179.264C161.363 179.264 157.464 180.864 154.126 184.239C153.436 183.526 152.802 182.758 152.232 181.94C155.639 177.665 159.976 175.371 164.596 175.371C165.042 175.371 165.491 175.394 165.943 175.436C171.855 176.005 177.441 180.34 180.942 187.059C180.592 187.288 180.234 187.508 179.869 187.715Z" fill="#C9F9A2"/>
<path d="M180.114 188.062C180.033 187.945 179.951 187.831 179.869 187.715C180.234 187.508 180.592 187.289 180.942 187.059C177.441 180.34 171.855 176.005 165.943 175.436C165.491 175.394 165.042 175.372 164.596 175.372C159.976 175.372 155.639 177.665 152.232 181.94C152.802 182.758 153.436 183.527 154.126 184.239C154.03 184.335 153.936 184.433 153.841 184.532C153.053 183.734 152.341 182.869 151.707 181.926C155.387 177.181 159.992 174.951 164.604 174.951C171.04 174.951 177.494 179.291 181.489 187.196C181.047 187.504 180.585 187.793 180.114 188.062Z" fill="#939EBF"/>
<path d="M188.484 203.637C198.272 205.861 209.298 200.891 213.438 192.335C208.841 189.493 203.955 188.84 199.511 190.513C194.364 192.45 190.423 197.174 188.484 203.637ZM193.387 208.998C190.5 208.998 187.594 208.542 184.788 207.575C183.636 207.176 182.963 205.98 183.224 204.788C185.235 195.591 190.554 188.747 197.818 186.013C204.341 183.56 211.451 184.801 217.841 189.513C218.694 190.144 219.033 191.259 218.677 192.257C215.05 202.399 204.366 208.998 193.387 208.998Z" fill="#102770"/>
<path d="M184.564 204.066C186.001 203.093 187.406 202.248 188.861 201.418C190.308 200.593 191.781 199.821 193.272 199.093C194.76 198.362 196.277 197.691 197.809 197.075C199.335 196.446 200.902 195.924 202.465 195.431C200.999 196.171 199.553 196.932 198.163 197.789C196.769 198.634 195.406 199.524 194.083 200.466C192.758 201.405 191.463 202.379 190.205 203.396C188.957 204.405 187.705 205.475 186.58 206.537L186.56 206.555C185.918 207.164 184.904 207.134 184.298 206.492C183.691 205.849 183.719 204.836 184.361 204.228C184.423 204.17 184.496 204.113 184.564 204.066Z" fill="#102770"/>
<path d="M154.785 182.013C157.396 185.109 161.123 187.231 165.454 188.054C169.935 188.908 174.485 188.28 178.256 186.337C175.069 181.157 170.51 177.868 165.753 177.41C161.765 177.03 157.923 178.651 154.785 182.013ZM169.374 193.233C167.775 193.233 166.161 193.084 164.556 192.778C158.316 191.591 153.044 188.212 149.714 183.266C149.134 182.404 149.172 181.269 149.809 180.45C154.185 174.807 160.01 172.022 166.213 172.624C173.194 173.295 179.706 178.338 183.634 186.116C184.176 187.189 183.843 188.499 182.851 189.179C178.992 191.835 174.254 193.233 169.374 193.233Z" fill="#102770"/>
<path d="M180.874 188.504C179.666 187.821 178.345 187.159 177.04 186.549C175.725 185.936 174.386 185.367 173.03 184.837C171.674 184.302 170.294 183.824 168.896 183.393C167.501 182.948 166.076 182.603 164.638 182.28C166.105 182.363 167.585 182.475 169.051 182.689C170.519 182.889 171.986 183.141 173.441 183.455C174.897 183.763 176.348 184.115 177.787 184.519C179.236 184.927 180.641 185.36 182.106 185.895C182.856 186.169 183.242 187.001 182.967 187.753C182.693 188.504 181.861 188.889 181.109 188.615C181.037 188.588 180.966 188.556 180.902 188.519L180.874 188.504Z" fill="#102770"/>
<path d="M175.479 228.514C176.29 227.112 177.685 226.166 179.146 225.58C180.623 225.003 182.231 224.769 183.835 224.892C185.433 225.017 187.061 225.508 188.44 226.49C189.125 226.97 189.732 227.605 190.168 228.327C190.395 228.675 190.528 229.101 190.659 229.479C190.761 229.88 190.789 230.301 190.786 230.688C189.525 229.68 188.371 229.27 187.19 228.958C186.012 228.658 184.802 228.504 183.56 228.4C182.316 228.302 181.044 228.262 179.726 228.276C178.397 228.29 177.068 228.357 175.479 228.514Z" fill="#102770"/>
<path d="M236.636 244.086C236.348 244.086 236.058 244.016 235.791 243.87C234.939 243.402 234.626 242.332 235.092 241.48C242.843 227.336 237.189 214.592 227.599 209.315C226.747 208.846 226.438 207.776 226.905 206.924C227.374 206.072 228.445 205.763 229.296 206.231C240.416 212.35 247.038 227.005 238.18 243.171C237.86 243.756 237.258 244.086 236.636 244.086Z" fill="#102770"/>
<path d="M132.4 244.463C131.777 244.463 131.175 244.133 130.855 243.549C121.999 227.385 128.421 212.845 139.342 206.834C140.193 206.367 141.264 206.675 141.733 207.528C142.201 208.379 141.891 209.449 141.039 209.918C131.936 214.927 125.833 227.059 133.941 241.858C134.409 242.71 134.096 243.78 133.244 244.246C132.975 244.394 132.685 244.463 132.4 244.463Z" fill="#102770"/>
<path d="M231.309 241.6C232.584 238.142 233.165 234.152 232.991 230.18L238.726 228.323C238.719 231.998 237.831 235.961 235.828 240.061C234.322 240.582 232.814 241.095 231.309 241.6Z" fill="#B7BED4"/>
<path d="M196.239 258.69C195.728 258.69 195.218 258.659 194.711 258.599C193.093 258.387 191.509 257.874 190.069 257.039C189.006 256.211 188.102 255.263 187.456 254.231C186.795 253.168 186.419 252.023 186.336 250.834C186.153 248.458 187.119 245.875 188.689 243.574C189.542 242.298 190.572 241.107 191.723 240.018C191.619 245.069 195.622 248.671 200.787 248.671C205.305 248.671 210.713 245.918 215.044 238.973C214.714 240.399 214.323 241.783 213.841 243.133C212.661 246.629 210.849 249.862 208.449 252.523C206.055 255.163 203.07 257.296 199.752 258.213C198.598 258.528 197.416 258.69 196.239 258.69ZM217.872 245.983C218.027 245.435 218.165 244.883 218.285 244.33C218.934 241.217 218.904 237.991 218.181 234.976L229.492 231.312C229.528 235.625 228.577 239.896 226.75 243.112C223.721 244.106 220.74 245.064 217.872 245.983Z" fill="#326DD0"/>
<path d="M217.055 248.404C217.367 247.609 217.639 246.8 217.873 245.983C220.741 245.064 223.721 244.106 226.75 243.112C226.443 243.652 226.112 244.161 225.756 244.637C225.45 245.046 225.349 245.543 225.433 246.007L217.055 248.404ZM229.874 244.737C230.422 243.759 230.901 242.707 231.309 241.6C232.814 241.095 234.322 240.582 235.829 240.061C235.598 240.533 235.353 241.006 235.092 241.481C234.781 242.049 234.816 242.715 235.129 243.235L229.874 244.737Z" fill="#102770"/>
<path d="M195.487 260.553C194.193 260.553 192.859 260.474 191.482 260.324C173.36 251.559 192.341 236.719 192.341 236.719C191.942 237.868 191.746 238.973 191.724 240.018C190.572 241.107 189.543 242.299 188.69 243.574C187.12 245.875 186.154 248.459 186.337 250.834C186.42 252.024 186.796 253.168 187.456 254.231C188.102 255.263 189.006 256.211 190.069 257.039C191.51 257.874 193.094 258.388 194.712 258.599C195.218 258.659 195.728 258.69 196.239 258.69C197.416 258.69 198.599 258.528 199.752 258.213C203.071 257.296 206.056 255.163 208.449 252.523C210.85 249.862 212.662 246.63 213.842 243.134C214.323 241.783 214.715 240.399 215.044 238.973C215.73 237.873 216.389 236.669 217.013 235.354L218.181 234.976C218.905 237.992 218.935 241.217 218.285 244.33C218.166 244.884 218.028 245.436 217.873 245.983C217.639 246.8 217.367 247.61 217.055 248.404L213.883 249.312C210.126 257.387 203.675 260.553 195.487 260.553Z" fill="#102770"/>
<path d="M225.433 246.007C225.349 245.542 225.45 245.045 225.756 244.637C226.112 244.161 226.443 243.651 226.75 243.112C228.577 239.896 229.528 235.624 229.492 231.312L232.991 230.18C233.164 234.152 232.584 238.142 231.309 241.6C230.9 242.707 230.422 243.758 229.874 244.737L225.433 246.007Z" fill="#102770"/>
<path d="M240.346 238.472C241.807 234.584 242.394 230.829 242.273 227.313C257.701 223.586 265.821 209.912 264.866 190.603C265.549 192.147 266.217 193.727 266.871 195.342C274.528 214.23 273.189 223.789 262.098 229.434C255.905 232.588 248.279 235.626 240.346 238.472Z" fill="#B7BED4"/>
<path d="M238.718 242.155C239.35 240.916 239.891 239.688 240.347 238.472C248.279 235.626 255.905 232.588 262.099 229.434C273.189 223.789 274.528 214.23 266.872 195.342C266.217 193.727 265.55 192.147 264.867 190.603C264.781 188.85 264.619 187.051 264.381 185.208C264.381 185.208 266.106 190.192 267.294 190.192C267.3 190.192 267.305 190.192 267.311 190.192C267.912 191.572 268.515 192.985 269.101 194.438C275.746 210.827 277.64 224.221 263.194 231.582C257.976 234.231 251.998 236.758 245.753 239.142V239.15C245.753 239.183 245.76 239.215 245.76 239.246L238.718 242.155Z" fill="#102770"/>
<path d="M235.129 243.235C234.817 242.715 234.781 242.049 235.092 241.481C235.353 241.006 235.598 240.533 235.829 240.061C237.831 235.961 238.719 231.998 238.726 228.323L240.93 227.609C241.383 227.519 241.831 227.42 242.273 227.313C242.394 230.829 241.807 234.584 240.347 238.472C239.891 239.688 239.35 240.916 238.718 242.155L238.297 242.328L235.129 243.235Z" fill="#102770"/>
<path d="M245.673 251.614C245.6 251.614 245.526 251.59 245.466 251.545C245.367 251.474 245.314 251.357 245.322 251.238C245.486 248.86 245.569 246.511 245.569 244.256C245.569 244.06 245.726 243.904 245.921 243.904C246.115 243.904 246.273 244.06 246.273 244.256V251.164C246.273 251.308 246.187 251.438 246.053 251.491L245.802 251.588C245.762 251.605 245.717 251.614 245.673 251.614Z" fill="#102770"/>
<path d="M206.94 278.457C205.717 278.564 204.53 278.581 203.351 278.602C202.176 278.607 201.013 278.602 199.859 278.576C198.706 278.55 197.557 278.542 196.428 278.431C195.298 278.321 194.175 278.174 193.067 277.844L193.05 277.839C191.913 277.501 191.267 276.305 191.604 275.169C191.864 274.296 192.634 273.712 193.49 273.641C194.696 273.544 195.885 273.674 197.059 273.885C198.233 274.092 199.384 274.449 200.521 274.827C201.66 275.206 202.78 275.648 203.879 276.142C204.975 276.65 206.055 277.196 207.088 277.872C207.234 277.968 207.277 278.167 207.18 278.313C207.125 278.399 207.033 278.448 206.94 278.457Z" fill="#102770"/>
<path d="M174.381 277.927C173.32 278.258 172.243 278.407 171.157 278.513C170.072 278.623 168.968 278.626 167.858 278.647C166.75 278.666 165.631 278.662 164.499 278.645C163.364 278.613 162.221 278.582 161.044 278.458C160.868 278.44 160.739 278.282 160.758 278.106C160.769 278.007 160.824 277.923 160.9 277.871C161.891 277.213 162.925 276.681 163.975 276.184C165.028 275.703 166.101 275.27 167.191 274.897C168.281 274.527 169.383 274.175 170.509 273.969C171.634 273.761 172.775 273.633 173.934 273.727C175.118 273.824 175.998 274.862 175.901 276.045C175.827 276.943 175.212 277.668 174.401 277.922L174.381 277.927Z" fill="#102770"/>
<path d="M133.803 361.693C129.686 361.693 126.279 359.75 123.838 355.899C123.318 355.078 123.562 353.991 124.383 353.47C125.202 352.949 126.292 353.193 126.811 354.013C127.976 355.852 131.524 361.448 141.936 355.613C157.48 346.898 175.68 318.739 172.317 311.902C171.889 311.029 172.248 309.975 173.121 309.547C173.991 309.116 175.047 309.476 175.477 310.349C178.703 316.91 170.115 330.668 167.408 334.728C160.309 345.37 151.43 354.325 143.658 358.682C140.072 360.693 136.755 361.693 133.803 361.693Z" fill="#102770"/>
<path d="M233.605 361.693C230.654 361.693 227.337 360.693 223.751 358.682C215.977 354.325 207.1 345.37 200.001 334.728C197.294 330.668 188.706 316.91 191.932 310.349C192.36 309.476 193.415 309.116 194.287 309.547C195.16 309.975 195.519 311.029 195.09 311.902C191.729 318.739 209.927 346.898 225.472 355.613C235.882 361.449 239.43 355.854 240.597 354.013C241.117 353.193 242.205 352.949 243.026 353.47C243.847 353.991 244.091 355.078 243.57 355.899C241.13 359.75 237.722 361.693 233.605 361.693Z" fill="#102770"/>
<path d="M141.877 297.229C132.001 297.229 125.291 293.515 122.22 288.014C121.747 287.165 122.051 286.094 122.898 285.621C123.746 285.146 124.82 285.449 125.293 286.299C130.058 294.833 145.912 297.922 170.594 285.583C171.464 285.148 172.521 285.5 172.956 286.37C173.39 287.238 173.038 288.296 172.169 288.731C160.134 294.747 149.949 297.229 141.877 297.229Z" fill="#102770"/>
<path d="M144.405 306.083C137.087 306.083 130.11 303.431 125.624 298.914C124.939 298.225 124.943 297.111 125.633 296.425C126.321 295.741 127.436 295.745 128.121 296.434C132.091 300.431 138.433 302.719 145.063 302.556C153.859 302.34 162.563 297.933 169.57 290.148C170.222 289.427 171.334 289.37 172.057 290.019C172.779 290.669 172.838 291.782 172.188 292.504C164.524 301.015 154.922 305.835 145.149 306.074C144.901 306.08 144.653 306.083 144.405 306.083Z" fill="#102770"/>
<path d="M224.701 297.01C217.036 297.01 207.294 294.767 195.469 288.987C194.596 288.561 194.234 287.506 194.661 286.633C195.087 285.76 196.14 285.397 197.015 285.825C221.452 297.769 235.841 294.001 240.738 287.144C240.985 286.796 241.211 286.442 241.408 286.09C241.884 285.241 242.959 284.939 243.803 285.412C244.652 285.887 244.955 286.96 244.481 287.807C244.22 288.273 243.924 288.738 243.602 289.19C240.457 293.594 234.159 297.01 224.701 297.01Z" fill="#102770"/>
<path d="M222.482 305.876C213.655 305.876 203.84 302.11 195.509 293.372C194.839 292.669 194.866 291.555 195.57 290.884C196.271 290.215 197.386 290.239 198.058 290.944C212.756 306.362 230.142 303.741 237.793 296.959C238.092 296.7 238.34 296.469 238.568 296.236C239.247 295.54 240.362 295.529 241.056 296.209C241.752 296.887 241.764 298.003 241.084 298.697C240.786 299.002 240.466 299.301 240.109 299.609C235.61 303.599 229.345 305.876 222.482 305.876Z" fill="#102770"/>
<path d="M127.262 343.089C126.705 343.089 126.137 343.082 125.56 343.068C124.59 343.044 123.821 342.236 123.845 341.264C123.869 340.307 124.652 339.548 125.603 339.548C125.618 339.548 125.633 339.548 125.649 339.549C137.83 339.858 142.336 336.832 143.022 335.191C143.16 334.861 143.247 334.411 142.689 333.874C141.445 332.673 137.559 331.824 131.961 334.406C131.076 334.814 130.032 334.428 129.625 333.546C129.218 332.663 129.602 331.617 130.485 331.21C137.732 327.866 142.905 329.191 145.134 331.339C146.612 332.766 147.037 334.714 146.268 336.55C144.539 340.684 137.49 343.089 127.262 343.089Z" fill="#102770"/>
<path d="M239.234 343.089C229.008 343.089 221.957 340.684 220.228 336.55C219.461 334.714 219.886 332.766 221.364 331.339C223.594 329.191 228.767 327.866 236.013 331.21C236.896 331.617 237.28 332.663 236.873 333.546C236.465 334.427 235.42 334.813 234.537 334.406C228.941 331.822 225.053 332.671 223.808 333.874C223.249 334.411 223.337 334.861 223.475 335.191C224.162 336.832 228.672 339.853 240.849 339.549C240.865 339.548 240.879 339.548 240.894 339.548C241.845 339.548 242.628 340.307 242.653 341.264C242.677 342.236 241.908 343.044 240.937 343.068C240.361 343.082 239.792 343.089 239.234 343.089Z" fill="#102770"/>
<path d="M57.0413 176.084L65.3977 186.532C68.139 189.959 65.7595 195.042 61.3723 195.132L47.9964 195.41C46.2548 195.445 44.6412 196.336 43.6838 197.792L36.3286 208.967C33.9159 212.633 28.3469 211.942 26.9047 207.797L22.5083 195.162C21.9354 193.516 20.5895 192.257 18.9089 191.795L6.00799 188.254C1.77573 187.093 0.712986 181.582 4.20929 178.929L14.8674 170.844C16.256 169.791 17.037 168.121 16.9563 166.381L16.3378 153.017C16.1348 148.633 21.0471 145.919 24.6502 148.425L35.6336 156.062C37.0644 157.057 38.8934 157.284 40.524 156.67L53.0426 151.952C57.1497 150.405 61.2484 154.237 59.9784 158.439L56.1092 171.244C55.6052 172.913 55.9544 174.722 57.0413 176.084Z" fill="#FFE709"/>
<path d="M41.3024 159.644C40.4047 159.644 39.5114 159.468 38.6758 159.123C39.5497 159.121 40.428 158.964 41.269 158.648L53.7877 153.929C54.0439 153.832 54.303 153.769 54.5606 153.738C54.4846 154.077 54.3649 154.59 54.2044 155.252L43.7178 159.205C42.9335 159.499 42.1165 159.644 41.3024 159.644ZM56.1629 154.514C55.9883 154.253 55.7898 154.01 55.5744 153.783C56.001 153.874 56.4107 154.058 56.7782 154.329C56.5966 154.367 56.4164 154.419 56.2362 154.487L56.1629 154.514Z" fill="#FFFACE"/>
<path d="M6.99059 186.334L6.56707 186.217C5.37226 185.89 4.51902 184.968 4.28459 183.751C4.04946 182.535 4.49903 181.361 5.48631 180.612L16.1446 172.526C18.0873 171.052 19.1798 168.718 19.0664 166.283L18.4476 152.919C18.3898 151.682 19.0031 150.585 20.0881 149.987C20.5809 149.714 21.1089 149.578 21.634 149.578C22.2647 149.578 22.8895 149.773 23.4443 150.158L23.4853 150.187C23.138 150.264 22.7958 150.394 22.4669 150.575C21.2016 151.275 20.4861 152.553 20.5529 153.998L20.6856 156.867C21.3981 157.842 21.9059 159.464 21.9848 161.322C22.0624 163.148 21.7073 164.782 21.0998 165.815L21.1715 167.361C21.2764 169.624 20.262 171.789 18.4586 173.158L7.80033 181.244C6.64888 182.118 6.12483 183.487 6.39882 184.906C6.50104 185.435 6.70393 185.917 6.99059 186.334Z" fill="#FFFACE"/>
<path d="M27.7876 203.907L24.5034 194.468C24.1107 193.34 23.4585 192.342 22.6187 191.54C24.4934 192.264 25.9696 193.778 26.637 195.697L29.2957 203.337C28.7993 203.562 28.297 203.752 27.7876 203.907Z" fill="#FFFACE"/>
<path d="M21.6341 149.578C21.109 149.578 20.581 149.713 20.0882 149.987C19.0032 150.585 18.3899 151.682 18.4477 152.919L19.0665 166.283C19.1799 168.718 18.0874 171.051 16.1447 172.526L5.4864 180.612C4.49912 181.361 4.04955 182.535 4.28468 183.751C4.51911 184.968 5.37235 185.89 6.56716 186.217L19.4679 189.759C21.8198 190.404 23.7022 192.166 24.5037 194.468L28.8996 207.101C29.3065 208.273 30.2842 209.063 31.5135 209.215C32.7385 209.365 33.8832 208.842 34.5645 207.805L41.9194 196.63C43.2602 194.594 45.5158 193.347 47.953 193.298L61.3274 193.02C62.5679 192.995 63.621 192.311 64.1462 191.187C64.67 190.065 64.5221 188.819 63.7492 187.851L55.3928 177.403C53.8693 175.498 53.3822 172.968 54.0876 170.633L57.9567 157.828C58.3158 156.642 57.9891 155.428 57.0838 154.582C56.1784 153.736 54.9465 153.491 53.7877 153.929L41.269 158.647C38.9872 159.506 36.4311 159.189 34.4285 157.797L23.4444 150.158C22.8896 149.773 22.2648 149.578 21.6341 149.578ZM31.9254 213.464C31.616 213.464 31.3051 213.446 30.9924 213.408C28.1742 213.056 25.8437 211.173 24.9101 208.49L20.5144 195.856C20.1698 194.866 19.3608 194.11 18.3501 193.833L5.44937 190.29C2.71098 189.54 0.675456 187.34 0.137043 184.551C-0.40137 181.763 0.670529 178.964 2.93302 177.247L13.5913 169.162C14.4265 168.527 14.8955 167.526 14.8465 166.478L14.2279 153.114C14.0966 150.278 15.5595 147.662 18.0455 146.289C20.5322 144.915 23.5242 145.07 25.8561 146.691L36.8402 154.329C37.7009 154.927 38.7981 155.065 39.7798 154.693L52.298 149.975C54.9549 148.974 57.8948 149.557 59.9687 151.497C62.0441 153.436 62.8213 156.331 62.0004 159.05L58.1313 171.855C57.8272 172.859 58.037 173.946 58.6917 174.764L67.0466 185.213C68.8207 187.431 69.1755 190.407 67.9717 192.978C66.7679 195.55 64.2546 197.185 61.4161 197.244L48.0403 197.52C46.9928 197.543 46.0241 198.078 45.4482 198.953L38.0928 210.129C36.7048 212.238 34.4002 213.464 31.9254 213.464Z" fill="#102770"/>
<path d="M28.2834 175.911C29.3684 177.952 28.5932 180.487 26.5516 181.572C24.5102 182.658 21.9756 181.882 20.8905 179.84C19.8055 177.799 20.5808 175.264 22.6223 174.179C24.6638 173.095 27.1983 173.869 28.2834 175.911Z" fill="#102770"/>
<path d="M26.4085 175.831C26.7783 176.526 26.5141 177.391 25.818 177.759C25.1221 178.13 24.2579 177.865 23.888 177.17C23.5182 176.474 23.7824 175.609 24.4785 175.239C25.1744 174.87 26.0384 175.134 26.4085 175.831Z" fill="white"/>
<path d="M38.4914 170.486C39.5766 172.527 42.1111 173.302 44.1532 172.218C46.1948 171.132 46.9692 168.598 45.885 166.556C44.7995 164.514 42.2647 163.739 40.2233 164.824C38.1818 165.91 37.4064 168.444 38.4914 170.486Z" fill="#102770"/>
<path d="M39.4729 168.886C39.8428 169.582 40.7069 169.846 41.4029 169.476C42.0987 169.106 42.3631 168.243 41.9931 167.546C41.6232 166.85 40.7593 166.586 40.0632 166.956C39.3673 167.326 39.1029 168.191 39.4729 168.886Z" fill="white"/>
<path d="M36.1226 178.344L33.3024 179.843C32.2233 180.416 32.0959 181.927 33.0794 182.652C34.4506 183.664 36.4908 184.523 38.7644 183.314C41.038 182.106 41.4676 179.935 41.3963 178.232C41.3451 177.012 40.0217 176.271 38.9426 176.845L36.1226 178.344Z" fill="#102770"/>
<path d="M29.7069 184.297C30.0521 184.946 29.1038 186.126 27.5893 186.93C26.0747 187.735 24.5672 187.862 24.2221 187.213C23.8771 186.564 24.8254 185.385 26.3398 184.58C27.8544 183.774 29.3619 183.648 29.7069 184.297Z" fill="#FF457D"/>
<path d="M50.1298 173.442C50.4748 174.092 49.5272 175.27 48.0122 176.075C46.4972 176.881 44.9907 177.006 44.6457 176.357C44.3007 175.708 45.2483 174.529 46.7633 173.724C48.2783 172.92 49.7848 172.793 50.1298 173.442Z" fill="#FF457D"/>
<path d="M35.9779 182.904C36.7032 183.12 37.5388 183.117 38.4278 182.645C39.3566 182.151 39.8273 181.419 40.0432 180.663C37.1103 180.364 36.194 182.289 35.9779 182.904Z" fill="#FF457D"/>
<path d="M37.0184 182.859C36.7543 182.859 36.5017 182.817 36.2634 182.746C36.4152 182.314 36.9897 181.093 38.6633 180.906C37.6527 181.141 37.1186 181.778 36.8518 182.255C36.7298 182.473 36.8669 182.745 37.1155 182.774C37.2133 182.786 37.3129 182.791 37.4143 182.791C37.4854 182.791 37.5574 182.789 37.63 182.783C37.4205 182.835 37.2162 182.859 37.0184 182.859Z" fill="#FF8FB1"/>
<path d="M31.9249 209.242C31.7892 209.242 31.6517 209.233 31.5133 209.215C31.5007 209.214 31.4881 209.212 31.4756 209.211C31.2945 208.945 31.145 208.651 31.0336 208.331L29.2959 203.337C37.2055 199.758 43.4656 187.62 47.7881 176.19C47.8627 176.153 47.9373 176.115 48.0119 176.076C49.5269 175.27 50.4745 174.092 50.1295 173.443C49.9817 173.164 49.6184 173.027 49.1313 173.027C49.0707 173.027 49.006 173.03 48.9412 173.034C51.6319 165.411 53.4172 158.515 54.2042 155.251L56.1627 154.514C56.9864 155.743 57.3117 157.325 56.8161 158.966L52.9455 171.773C52.4414 173.441 52.7906 175.25 53.879 176.611L62.2354 187.059C63.5955 188.761 63.6941 190.871 62.9112 192.574C62.448 192.853 61.9087 193.009 61.3272 193.021L47.9528 193.298C45.5156 193.347 43.26 194.595 41.9192 196.631L41.5879 197.135C41.1794 197.47 40.8184 197.867 40.5206 198.32L33.6857 208.706C33.1728 209.055 32.5665 209.242 31.9249 209.242Z" fill="#CFC11E"/>
<path d="M54.2043 155.251C54.3649 154.59 54.4845 154.077 54.5606 153.738C54.6859 153.724 54.8098 153.715 54.9337 153.715C55.1505 153.715 55.3645 153.739 55.5743 153.783C55.7897 154.009 55.9883 154.253 56.1628 154.514L54.2043 155.251Z" fill="#CFD0BB"/>
<path d="M31.4758 209.211C30.2642 209.046 29.3024 208.26 28.8996 207.102L27.788 203.907C28.2974 203.752 28.7996 203.562 29.2961 203.337L31.0338 208.331C31.1452 208.65 31.2947 208.945 31.4758 209.211Z" fill="#CFD0BB"/>
<path d="M31.9185 211.348C29.8058 211.348 27.7108 210.113 26.9048 207.797L25.699 204.331C26.4066 204.259 27.1033 204.115 27.7878 203.907L28.8995 207.102C29.3023 208.26 30.2641 209.046 31.4757 209.211C31.4882 209.212 31.5007 209.214 31.5134 209.215C31.6518 209.233 31.7892 209.242 31.9249 209.242C32.5665 209.242 33.1728 209.055 33.6858 208.705L33.1661 209.495C32.6286 210.312 31.9304 210.899 31.1604 211.293C31.4124 211.33 31.6667 211.347 31.9213 211.347C32.3801 211.347 32.8398 211.289 33.2873 211.171C32.8389 211.29 32.3783 211.348 31.9185 211.348ZM41.5879 197.135L41.9192 196.631C43.26 194.595 45.5156 193.347 47.9528 193.298L61.3273 193.02C61.9088 193.009 62.448 192.853 62.9113 192.574C62.4044 193.678 61.5272 194.61 60.3839 195.154L47.9965 195.41C47.2474 195.425 46.5266 195.607 45.8676 195.915L44.8342 195.936C43.6332 195.962 42.4938 196.393 41.5879 197.135ZM55.5743 153.783C55.3645 153.739 55.1505 153.715 54.9336 153.715C54.8097 153.715 54.6858 153.724 54.5605 153.738C54.6309 153.429 54.6675 153.265 54.6675 153.265L55.7939 151.678L54.7816 153.103C55.0674 153.304 55.3321 153.532 55.5743 153.783Z" fill="#102770"/>
<path d="M47.788 176.189C48.1878 175.129 48.5736 174.075 48.9411 173.034C49.0059 173.03 49.0706 173.027 49.1312 173.027C49.6183 173.027 49.9816 173.164 50.1294 173.442C50.4744 174.092 49.5268 175.27 48.0118 176.075C47.9372 176.115 47.8626 176.153 47.788 176.189Z" fill="#CF3F7A"/>
<path d="M347.138 260.035C338.428 272.683 321.116 275.876 308.468 267.166C295.82 258.456 292.626 241.144 301.336 228.496C310.046 215.848 327.359 212.655 340.007 221.365C352.654 230.074 355.846 247.387 347.138 260.035Z" fill="#EE346A"/>
<path d="M315.684 240.35C314.529 240.35 313.372 239.943 312.442 239.115C310.432 237.322 310.254 234.242 312.045 232.231C313.008 231.151 314.345 230.599 315.686 230.599C316.841 230.599 318 231.008 318.929 231.836C320.938 233.626 321.116 236.709 319.325 238.718C318.362 239.799 317.025 240.35 315.684 240.35Z" fill="#AB306C"/>
<path d="M330.393 250.29C329.6 250.29 328.803 250.01 328.164 249.441C326.783 248.209 326.66 246.092 327.892 244.709C328.554 243.967 329.472 243.588 330.396 243.588C331.188 243.588 331.985 243.867 332.625 244.437C334.006 245.668 334.128 247.787 332.896 249.169C332.235 249.911 331.315 250.29 330.393 250.29Z" fill="#AB306C"/>
<path d="M333.888 234.121C332.353 234.121 331.029 232.968 330.852 231.406C330.661 229.728 331.867 228.212 333.547 228.021C333.664 228.009 333.781 228.002 333.895 228.002C335.431 228.002 336.754 229.155 336.932 230.716C337.122 232.395 335.915 233.911 334.237 234.101C334.12 234.115 334.003 234.121 333.888 234.121Z" fill="#AB306C"/>
<path d="M298.703 241.439C299.148 237.351 300.583 233.311 303.075 229.693C308.054 222.465 316.098 218.581 324.275 218.581C329.298 218.581 334.369 220.047 338.808 223.103C342.017 225.312 344.566 228.126 346.41 231.286C346.426 231.569 346.437 231.852 346.444 232.136C344.756 229.793 342.679 227.72 340.263 225.998C340.143 225.914 340.025 225.829 339.904 225.746C336.535 223.426 332.763 221.94 328.834 221.332C327.863 222.291 325.844 223.02 323.471 223.148C323.228 223.161 322.987 223.167 322.749 223.167C320.668 223.167 318.881 222.674 317.927 221.904C311.709 223.523 306.335 227.27 302.654 232.616C300.756 235.374 299.45 238.364 298.703 241.439Z" fill="#F79AB5"/>
<path d="M347.138 260.035H347.145H347.138ZM324.275 218.581C316.097 218.581 308.054 222.466 303.075 229.693C295.041 241.361 297.996 257.392 309.664 265.427C321.334 273.461 337.364 270.505 345.399 258.838C353.433 247.169 350.478 231.139 338.808 223.103C334.369 220.047 329.297 218.581 324.275 218.581ZM324.193 274.172C318.345 274.172 312.439 272.466 307.269 268.905C293.682 259.549 290.241 240.885 299.596 227.298C308.953 213.712 327.619 210.268 341.205 219.626C354.792 228.982 358.233 247.646 348.877 261.233C343.081 269.649 333.713 274.172 324.193 274.172Z" fill="#102770"/>
<path d="M315.982 243.089C314.801 243.089 313.615 242.734 312.603 242.013C312.431 241.89 312.265 241.757 312.103 241.613C310.94 240.577 310.25 239.149 310.161 237.593C310.156 237.506 310.16 237.42 310.159 237.333C310.477 238.284 311.034 239.145 311.804 239.83C311.965 239.974 312.133 240.106 312.304 240.229C313.317 240.951 314.501 241.306 315.682 241.306C317.289 241.306 318.889 240.647 320.041 239.357C321.048 238.227 321.528 236.809 321.51 235.402C322.15 237.323 321.78 239.523 320.34 241.14C319.189 242.431 317.588 243.089 315.982 243.089Z" fill="#F79AB5"/>
<path d="M330.687 253.033C329.789 253.033 328.927 252.755 328.199 252.237C328.071 252.146 327.946 252.047 327.826 251.94C326.966 251.174 326.456 250.118 326.39 248.969C326.381 248.82 326.381 248.672 326.388 248.526C326.632 249.144 327.016 249.702 327.526 250.158C327.646 250.263 327.771 250.363 327.899 250.455C328.627 250.973 329.489 251.249 330.387 251.249C330.472 251.249 330.557 251.248 330.642 251.242C331.791 251.176 332.845 250.666 333.611 249.807C334.279 249.058 334.656 248.123 334.7 247.136C334.866 247.559 334.97 248.008 334.997 248.474C335.063 249.624 334.677 250.731 333.911 251.59C333.145 252.45 332.091 252.96 330.94 253.024C330.856 253.03 330.771 253.033 330.687 253.033Z" fill="#F79AB5"/>
<path d="M334.183 236.864C333.351 236.864 332.546 236.606 331.863 236.12C331.804 236.078 331.746 236.034 331.688 235.988C330.849 235.319 330.32 234.364 330.199 233.297C330.172 233.065 330.169 232.834 330.183 232.606C330.44 233.227 330.849 233.776 331.389 234.205C331.446 234.25 331.505 234.295 331.565 234.338C332.247 234.823 333.051 235.08 333.883 235.08C334.037 235.08 334.19 235.071 334.345 235.054C335.411 234.933 336.367 234.404 337.035 233.563C337.558 232.907 337.853 232.121 337.9 231.299C338.043 231.644 338.14 232.01 338.183 232.39C338.305 233.458 338.003 234.507 337.334 235.347C336.667 236.186 335.711 236.716 334.644 236.837C334.49 236.855 334.337 236.864 334.183 236.864Z" fill="#F79AB5"/>
<path d="M322.871 269.548C320.911 269.548 318.943 269.341 317.001 268.92C314.45 268.174 311.972 267.015 309.664 265.427C305.329 262.441 302.198 258.352 300.384 253.793C301.169 254.477 302.001 255.125 302.879 255.731C307.696 259.046 313.187 260.637 318.625 260.637C327.464 260.637 336.157 256.43 341.55 248.599C345.012 243.571 346.592 237.805 346.444 232.136C347.035 232.955 347.577 233.808 348.071 234.69C350.259 240.161 350.545 246.314 348.726 252.049C347.971 253.935 346.997 255.767 345.797 257.51C340.404 265.343 331.712 269.548 322.871 269.548Z" fill="#AB306C"/>
<path d="M348.072 234.69C347.577 233.808 347.035 232.955 346.444 232.135C346.437 231.852 346.426 231.569 346.41 231.286C347.05 232.382 347.604 233.521 348.072 234.69Z" fill="#B177A0"/>
<path d="M317.002 268.921C313.562 268.176 310.205 266.761 307.127 264.642C303.757 262.321 301.06 259.39 299.079 256.098C298.227 254.28 297.571 252.381 297.129 250.434C298.106 251.628 299.191 252.754 300.385 253.793C302.198 258.352 305.329 262.441 309.665 265.427C311.972 267.016 314.45 268.174 317.002 268.921ZM348.726 252.049C350.545 246.314 350.26 240.161 348.072 234.69C347.604 233.521 347.049 232.382 346.41 231.287C346.321 229.728 346.103 228.181 345.758 226.66C346.817 227.954 347.742 229.332 348.539 230.77C348.393 230.505 348.242 230.243 348.086 229.983C351.276 236.83 351.611 244.833 348.726 252.049ZM348.569 230.823C348.56 230.807 348.55 230.79 348.54 230.773C348.55 230.79 348.56 230.807 348.569 230.823ZM348.54 230.773C348.54 230.771 348.539 230.771 348.539 230.77C348.539 230.771 348.54 230.771 348.54 230.773Z" fill="#102770"/>
<path d="M315.691 231.482C315.613 231.482 315.535 231.484 315.457 231.488C314.391 231.55 313.414 232.021 312.705 232.818C311.996 233.615 311.639 234.64 311.699 235.705C311.761 236.769 312.233 237.746 313.03 238.456C314.673 239.922 317.2 239.775 318.666 238.132C319.376 237.335 319.733 236.31 319.673 235.246C319.611 234.181 319.139 233.204 318.342 232.494C317.604 231.837 316.671 231.482 315.691 231.482ZM315.682 241.23C314.319 241.23 312.951 240.749 311.856 239.774C309.486 237.662 309.276 234.014 311.388 231.644C312.41 230.497 313.82 229.815 315.356 229.726C316.889 229.643 318.367 230.154 319.516 231.177C321.886 233.289 322.096 236.935 319.984 239.306C318.848 240.579 317.269 241.23 315.682 241.23Z" fill="#102770"/>
<path d="M332.896 249.169H332.904H332.896ZM330.397 244.469C330.349 244.469 330.302 244.471 330.252 244.474C329.595 244.512 328.989 244.803 328.551 245.296C328.112 245.789 327.891 246.422 327.929 247.081C327.967 247.739 328.26 248.343 328.751 248.782C329.769 249.689 331.332 249.599 332.239 248.582C332.677 248.089 332.898 247.456 332.86 246.797C332.822 246.139 332.53 245.534 332.038 245.096C331.581 244.689 331.004 244.469 330.397 244.469ZM330.392 251.171C329.389 251.171 328.384 250.818 327.577 250.1C326.734 249.347 326.233 248.312 326.168 247.183C326.103 246.053 326.482 244.966 327.234 244.122C327.985 243.278 329.022 242.777 330.152 242.712C331.272 242.646 332.367 243.026 333.212 243.778C334.057 244.53 334.557 245.566 334.621 246.697C334.686 247.825 334.307 248.912 333.555 249.756C332.721 250.693 331.559 251.171 330.392 251.171Z" fill="#102770"/>
<path d="M333.893 228.885C333.812 228.885 333.729 228.889 333.647 228.897C333.068 228.964 332.55 229.249 332.188 229.706C331.826 230.16 331.663 230.729 331.728 231.306C331.794 231.885 332.08 232.403 332.535 232.765C332.991 233.127 333.565 233.293 334.137 233.226C335.329 233.089 336.191 232.008 336.055 230.816C335.929 229.707 334.985 228.885 333.893 228.885ZM333.883 235.004C332.996 235.004 332.142 234.707 331.436 234.146C330.613 233.49 330.095 232.553 329.975 231.506C329.857 230.46 330.152 229.43 330.807 228.606C331.463 227.782 332.401 227.264 333.447 227.144C335.615 226.901 337.563 228.457 337.809 230.617C338.053 232.776 336.495 234.732 334.337 234.978C334.185 234.995 334.034 235.004 333.883 235.004Z" fill="#102770"/>
<path d="M361.749 259.839C360.138 255.514 354.72 251.949 351.423 250.111C351.261 250.868 351.068 251.621 350.84 252.367C354.158 254.081 355.656 255.776 356.299 257.108C356.934 258.424 356.166 260.207 354.698 260.778C352.376 261.684 349.304 261.922 345.868 261.725C331.764 260.914 311.501 252.722 311.501 252.722C304.796 250.223 299.95 247.759 296.466 245.586C292.376 243.035 290.166 240.888 289.048 239.564C288.047 238.379 288.489 236.347 289.974 235.43C292.124 234.101 295.479 234.365 298.064 234.869C298.39 233.966 298.761 233.073 299.185 232.195C292.483 230.755 288.448 231.399 286.026 232.712C283.086 234.305 282.022 238.128 283.699 240.633C286.495 244.808 291.597 248.613 297.511 251.935C312.928 260.595 333.868 265.96 333.868 265.96C336.025 266.522 338.016 266.935 339.883 267.251C349.842 268.928 355.813 267.403 358.993 265.894C361.293 264.802 362.574 262.054 361.749 259.839Z" fill="#102770"/>
</svg>
